<svg xmlns="http://www.w3.org/2000/svg" xmlns:xlink="http://www.w3.org/1999/xlink" width="500" zoomAndPan="magnify" viewBox="0 0 375 374.999991" height="500" preserveAspectRatio="xMidYMid meet" version="1.0"><defs><clipPath id="ac2b1fba64"><path d="M 13.386719 13.386719 L 361.386719 13.386719 L 361.386719 361.386719 L 13.386719 361.386719 Z M 13.386719 13.386719 " clip-rule="nonzero"/></clipPath></defs><g clip-path="url(#ac2b1fba64)"><path fill="#204e4d" d="M 351.839844 128.0625 C 358.664062 146.71875 362.382812 166.871094 362.382812 187.890625 C 362.382812 284.257812 284.257812 362.378906 187.890625 362.378906 C 147.398438 362.378906 110.117188 348.578125 80.507812 325.429688 L 62.625 341 C 61.066406 342.371094 59 342.714844 57.0625 341.960938 C 55.140625 341.203125 53.863281 339.566406 53.628906 337.484375 L 46.523438 273.84375 C 46.300781 271.953125 47.011719 270.234375 48.476562 269.023438 C 49.941406 267.808594 51.769531 267.460938 53.582031 268.03125 L 112.480469 286.605469 C 114.417969 287.222656 115.773438 288.71875 116.183594 290.703125 C 116.59375 292.6875 115.945312 294.59375 114.417969 295.917969 L 98.789062 309.515625 C 123.761719 327.84375 154.550781 338.652344 187.890625 338.652344 C 271.148438 338.652344 338.667969 271.148438 338.667969 187.890625 C 338.667969 171 335.878906 154.769531 330.773438 139.613281 C 330 137.328125 330.757812 134.902344 332.695312 133.484375 L 343.488281 125.542969 C 344.921875 124.488281 346.609375 124.203125 348.292969 124.707031 C 349.996094 125.226562 351.242188 126.394531 351.839844 128.0625 Z M 187.890625 13.386719 C 228.386719 13.386719 265.652344 27.1875 295.257812 50.335938 L 313.140625 34.769531 C 314.71875 33.398438 316.765625 33.050781 318.703125 33.808594 C 320.640625 34.5625 321.902344 36.203125 322.136719 38.28125 L 329.261719 101.921875 C 329.464844 103.8125 328.773438 105.53125 327.289062 106.746094 C 325.824219 107.957031 324.011719 108.304688 322.203125 107.738281 L 263.289062 89.144531 C 261.347656 88.546875 260.007812 87.046875 259.585938 85.0625 C 259.175781 83.078125 259.820312 81.171875 261.347656 79.832031 L 276.980469 66.234375 C 252.019531 47.925781 221.21875 37.101562 187.890625 37.101562 C 104.617188 37.101562 37.117188 104.617188 37.117188 187.890625 C 37.117188 204.765625 39.890625 220.996094 44.992188 236.152344 C 45.765625 238.4375 45.011719 240.847656 43.070312 242.285156 L 32.277344 250.226562 C 30.84375 251.28125 29.160156 251.5625 27.472656 251.058594 C 25.769531 250.539062 24.527344 249.375 23.925781 247.703125 C 17.105469 229.046875 13.386719 208.894531 13.386719 187.890625 C 13.386719 91.507812 91.507812 13.386719 187.890625 13.386719 Z M 187.890625 71.574219 C 252.117188 71.574219 304.191406 123.652344 304.191406 187.875 C 304.191406 252.117188 252.117188 304.191406 187.890625 304.191406 C 123.652344 304.191406 71.574219 252.117188 71.574219 187.875 C 71.574219 123.652344 123.652344 71.574219 187.890625 71.574219 Z M 199.488281 173.726562 C 202.890625 175.867188 205.773438 178.753906 207.917969 182.15625 L 254.023438 182.15625 C 261.933594 182.15625 268.34375 188.570312 268.34375 196.480469 C 268.34375 204.371094 261.933594 210.785156 254.023438 210.785156 L 207.917969 210.785156 C 203.175781 218.332031 194.761719 223.34375 185.179688 223.34375 C 170.339844 223.34375 158.300781 211.320312 158.300781 196.480469 C 158.300781 186.898438 163.3125 178.484375 170.859375 173.726562 L 170.859375 125.242188 C 170.859375 117.332031 177.269531 110.921875 185.179688 110.921875 C 193.074219 110.921875 199.488281 117.332031 199.488281 125.242188 Z M 185.179688 186.535156 C 190.664062 186.535156 195.109375 190.996094 195.109375 196.480469 C 195.109375 201.960938 190.664062 206.40625 185.179688 206.40625 C 179.699219 206.40625 175.238281 201.960938 175.238281 196.480469 C 175.238281 190.996094 179.699219 186.535156 185.179688 186.535156 Z M 185.179688 186.535156 " fill-opacity="1" fill-rule="evenodd"/></g></svg>