<svg xmlns="http://www.w3.org/2000/svg" xmlns:xlink="http://www.w3.org/1999/xlink" width="500" zoomAndPan="magnify" viewBox="0 0 375 374.999991" height="500" preserveAspectRatio="xMidYMid meet" version="1.0"><defs><clipPath id="d92d165996"><path d="M 52 244 L 323 244 L 323 365.296875 L 52 365.296875 Z M 52 244 " clip-rule="nonzero"/></clipPath></defs><path fill="#204e4d" d="M 286.023438 128.050781 C 285.269531 125.324219 283.417969 123.074219 280.808594 121.703125 C 281.375 115.542969 280.535156 107.992188 279.09375 101.78125 C 277.875 96.671875 275.953125 90.957031 273.019531 85.003906 C 269.914062 79.117188 266.085938 72.855469 260.71875 67.089844 C 255.621094 61.121094 249.050781 55.683594 241.640625 50.894531 C 176.976562 9.875 87.691406 58.394531 94.621094 121.71875 C 92.03125 123.09375 90.195312 125.324219 89.441406 128.03125 C 74.136719 128.308594 61.835938 139.683594 61.835938 153.734375 C 61.835938 167.785156 74.136719 179.179688 89.441406 179.453125 C 90.660156 183.878906 94.84375 187.242188 100.078125 187.242188 C 106.269531 187.242188 111.265625 182.660156 111.265625 177 L 111.265625 130.503906 C 111.265625 127.277344 109.546875 124.515625 107.027344 122.644531 C 109.824219 106.636719 118.144531 89.722656 129.8125 79.222656 C 146.933594 62.527344 176.648438 52.886719 209.316406 60.160156 C 221.890625 63.902344 234.261719 70.195312 244.574219 80.285156 C 256.050781 90.597656 265.367188 106.054688 268.402344 122.644531 C 261.796875 127.550781 264.167969 131.789062 264.167969 177 C 264.167969 180.53125 266.257812 183.5 269.226562 185.335938 L 269.226562 189.28125 C 269.226562 191.769531 268.523438 194.222656 267.167969 196.335938 C 252.550781 219.117188 251.589844 221.433594 229.507812 228.503906 C 222.5625 230.71875 214.71875 231.679688 206.792969 233.617188 C 199.484375 226.394531 186.601562 231.144531 186.601562 240.804688 C 186.601562 253.003906 205.644531 255.800781 209.332031 243.601562 C 214.6875 242.296875 220.191406 241.527344 225.375 239.949219 C 253.855469 231.285156 263.171875 226.136719 278.253906 197.363281 C 279.675781 194.636719 280.429688 191.617188 280.429688 188.546875 L 280.429688 186.007812 C 283.246094 184.667969 285.234375 182.316406 286.023438 179.433594 C 301.3125 179.160156 313.59375 167.785156 313.59375 153.734375 C 313.59375 139.699219 301.3125 128.34375 286.023438 128.050781 " fill-opacity="1" fill-rule="nonzero"/><g clip-path="url(#d92d165996)"><path fill="#204e4d" d="M 187.75 294.265625 C 196.894531 281.433594 204.855469 270.402344 212.660156 259.265625 C 221.804688 246.210938 231.019531 241.988281 245.464844 246.863281 C 263.824219 253.054688 281.992188 259.988281 299.765625 267.722656 C 315.019531 274.363281 323.582031 286.238281 322.636719 303.839844 C 322.15625 312.503906 322.636719 321.203125 322.515625 329.882812 C 322.207031 353.800781 311.3125 364.933594 287.621094 365.054688 C 257.027344 365.246094 226.4375 365.125 195.847656 365.125 C 160.296875 365.125 124.730469 365.210938 89.199219 365.074219 C 63.773438 364.953125 53.050781 354.09375 52.914062 328.804688 C 52.863281 320.535156 53.324219 312.246094 52.8125 304.011719 C 51.679688 285.6875 61.113281 273.917969 76.675781 267.191406 C 94.46875 259.507812 112.722656 252.832031 131.113281 246.742188 C 146.796875 241.527344 151.652344 243.859375 161.363281 257.464844 C 169.71875 269.183594 178.140625 280.867188 187.75 294.265625 " fill-opacity="1" fill-rule="nonzero"/></g><path fill="#204e4d" d="M 252.550781 141.605469 C 250.871094 163.1875 244.058594 190.757812 221.429688 212 C 202.246094 229.996094 172.976562 230.441406 154.105469 212.015625 C 127.957031 186.46875 119.707031 153.992188 123.753906 118.921875 C 125.863281 100.582031 137.050781 86.136719 155.835938 79.992188 C 183.769531 70.847656 210.824219 69.941406 235.410156 89.480469 C 249.773438 100.875 253.046875 116.519531 252.550781 141.605469 " fill-opacity="1" fill-rule="nonzero"/></svg>