<svg xmlns="http://www.w3.org/2000/svg" xmlns:xlink="http://www.w3.org/1999/xlink" width="500" zoomAndPan="magnify" viewBox="0 0 375 374.999991" height="500" preserveAspectRatio="xMidYMid meet" version="1.0"><defs><clipPath id="4df6759449"><path d="M 0 42.1875 L 141 42.1875 L 141 232 L 0 232 Z M 0 42.1875 " clip-rule="nonzero"/></clipPath><clipPath id="f0bc17cec7"><path d="M 168 42.1875 L 210 42.1875 L 210 89 L 168 89 Z M 168 42.1875 " clip-rule="nonzero"/></clipPath><clipPath id="a81a0ad51a"><path d="M 101 42.1875 L 170 42.1875 L 170 114 L 101 114 Z M 101 42.1875 " clip-rule="nonzero"/></clipPath></defs><g clip-path="url(#4df6759449)"><path fill="#204e4d" d="M 18.910156 42.386719 C 8.511719 42.386719 0.132812 50.789062 0.132812 61.1875 L 0.132812 176.007812 C 0.132812 186.433594 8.511719 194.789062 18.910156 194.789062 L 87.707031 194.789062 L 87.707031 204.285156 C 77.257812 204.285156 68.710938 214.882812 68.710938 222.671875 L 68.710938 229.054688 C 68.710938 230.953125 69.757812 231.859375 71.464844 231.859375 L 138.023438 231.859375 C 139.726562 231.859375 140.773438 230.957031 140.773438 229.054688 L 140.773438 222.671875 C 140.773438 214.882812 132.25 204.285156 121.804688 204.285156 L 121.804688 194.792969 L 137.222656 194.792969 C 136.636719 192.628906 136.148438 190.433594 135.804688 188.113281 C 134.398438 178.84375 134.976562 169.800781 137.285156 161.769531 L 29.601562 161.769531 C 22.101562 161.769531 21.003906 157.140625 21.003906 151.398438 L 21.003906 68.519531 C 21.003906 62.773438 21.488281 58.148438 28.988281 58.148438 L 91.96875 58.148438 C 99.953125 58.148438 103.953125 42.386719 97.863281 42.386719 Z M 18.910156 42.386719 " fill-opacity="1" fill-rule="evenodd"/></g><g clip-path="url(#f0bc17cec7)"><path fill="#204e4d" d="M 171.214844 42.386719 C 164.6875 42.386719 170.3125 58.148438 178.371094 58.148438 L 180.492188 58.148438 C 187.992188 58.148438 188.476562 62.769531 188.476562 68.519531 L 188.476562 79.457031 C 188.476562 93.753906 209.351562 88.78125 209.351562 74.484375 L 209.351562 61.1875 C 209.351562 50.789062 200.996094 42.386719 190.570312 42.386719 C 181.082031 42.386719 171.214844 42.386719 171.214844 42.386719 Z M 171.214844 42.386719 " fill-opacity="1" fill-rule="evenodd"/></g><path fill="#204e4d" d="M 260.125 106.753906 C 226.710938 106.753906 199.777344 132.785156 199.777344 167.097656 C 199.777344 201.414062 226.710938 227.425781 260.125 227.425781 C 293.539062 227.425781 320.453125 201.414062 320.453125 167.097656 C 320.453125 132.8125 293.542969 106.753906 260.125 106.753906 Z M 260.125 106.753906 " fill-opacity="1" fill-rule="nonzero"/><path fill="#204e4d" d="M 223.011719 236.464844 C 179.304688 246.429688 158.210938 261.011719 149.664062 302 C 147.324219 313.050781 150.949219 316.296875 155.453125 317.828125 C 186.507812 328.332031 237.574219 332.074219 260.125 332.074219 C 282.652344 332.074219 333.75 328.332031 364.773438 317.828125 C 369.300781 316.296875 372.929688 313.054688 370.5625 302 C 362.019531 261.011719 340.949219 246.429688 297.21875 236.464844 L 264.09375 244.0625 C 260.976562 244.792969 259.246094 244.792969 256.15625 244.0625 Z M 223.011719 236.464844 " fill-opacity="1" fill-rule="nonzero"/><path fill="#204e4d" d="M 260.125 79.554688 C 242.25 79.554688 224.234375 83.84375 208.648438 94.242188 C 191.132812 105.929688 178.910156 123.222656 173.285156 142.507812 C 171.726562 142.316406 169.851562 142.410156 167.65625 143.019531 C 159.402344 145.378906 153.171875 152.121094 150.394531 158.09375 C 146.765625 165.859375 145.253906 176.113281 146.863281 186.734375 C 148.4375 197.304688 152.921875 206.042969 158.503906 211.433594 C 164.101562 216.832031 170.410156 218.613281 176.722656 217.269531 C 186.074219 215.277344 190.699219 213.792969 189.382812 205.09375 L 183.054688 162.816406 C 184.34375 139.953125 196.183594 118.425781 215.976562 105.191406 C 229.347656 96.261719 244.8125 92.726562 260.128906 92.726562 C 275.429688 92.726562 290.890625 96.261719 304.265625 105.191406 C 324.058594 118.425781 335.894531 139.953125 337.1875 162.816406 L 330.855469 205.09375 C 329.535156 213.789062 334.191406 215.277344 343.542969 217.269531 C 349.832031 218.613281 356.132812 216.832031 361.734375 211.433594 C 367.339844 206.050781 371.796875 197.308594 373.382812 186.734375 C 375.007812 176.113281 373.476562 165.855469 369.847656 158.09375 C 367.070312 152.128906 360.863281 145.378906 352.609375 143.019531 C 350.386719 142.40625 348.515625 142.316406 346.976562 142.507812 C 341.328125 123.222656 329.125 105.929688 311.589844 94.242188 C 295.996094 83.84375 277.980469 79.554688 260.125 79.554688 Z M 260.125 79.554688 " fill-opacity="1" fill-rule="evenodd"/><path fill="#204e4d" d="M 83.882812 114.746094 C 99.15625 118.691406 106.503906 124.433594 109.503906 140.605469 C 110.308594 144.988281 109.042969 146.25 107.484375 146.863281 C 96.644531 151.003906 78.816406 152.488281 70.957031 152.488281 C 63.085938 152.488281 45.261719 151.003906 34.417969 146.863281 C 32.839844 146.25 31.570312 144.988281 32.398438 140.605469 C 35.371094 124.433594 42.722656 118.6875 58 114.746094 L 69.566406 122.78125 C 70.515625 123.4375 71.394531 123.4375 72.339844 122.78125 Z M 83.882812 114.746094 " fill-opacity="1" fill-rule="nonzero"/><path fill="#204e4d" d="M 70.957031 67.566406 C 58.804688 67.566406 48.984375 77.042969 48.984375 89.507812 C 48.984375 102.003906 58.808594 111.449219 70.957031 111.449219 C 83.101562 111.449219 92.894531 102 92.894531 89.507812 C 92.894531 77.046875 83.101562 67.566406 70.957031 67.566406 Z M 70.957031 67.566406 " fill-opacity="1" fill-rule="evenodd"/><g clip-path="url(#a81a0ad51a)"><path fill="#204e4d" d="M 152.996094 70.203125 C 156.578125 70.203125 159.476562 73.125 159.476562 76.679688 C 159.476562 80.261719 156.578125 83.160156 152.996094 83.160156 C 149.445312 83.160156 146.519531 80.261719 146.519531 76.679688 C 146.519531 73.125 149.445312 70.203125 152.996094 70.203125 Z M 135.585938 70.203125 C 139.144531 70.203125 142.035156 73.125 142.066406 76.679688 C 142.042969 80.261719 139.144531 83.160156 135.585938 83.160156 C 132.007812 83.160156 129.109375 80.261719 129.109375 76.679688 C 129.109375 73.125 132.007812 70.203125 135.585938 70.203125 Z M 118.148438 70.203125 C 121.730469 70.203125 124.625 73.125 124.625 76.679688 C 124.625 80.261719 121.726562 83.160156 118.148438 83.160156 C 114.570312 83.160156 111.671875 80.261719 111.671875 76.679688 C 111.671875 73.125 114.566406 70.203125 118.148438 70.203125 Z M 135.585938 42.386719 C 116.585938 42.386719 101.296875 57.191406 101.296875 76.703125 C 101.296875 86.054688 104.824219 94.304688 110.574219 100.394531 L 108.527344 109.582031 C 107.871094 112.597656 109.964844 114.617188 112.664062 113.109375 L 121.628906 108.113281 C 125.886719 109.945312 130.585938 110.960938 135.574219 110.960938 C 154.574219 110.960938 169.863281 96.1875 169.863281 76.703125 C 169.875 57.191406 154.582031 42.386719 135.585938 42.386719 Z M 135.585938 42.386719 " fill-opacity="1" fill-rule="evenodd"/></g></svg>