<svg xmlns="http://www.w3.org/2000/svg" xmlns:xlink="http://www.w3.org/1999/xlink" width="500" zoomAndPan="magnify" viewBox="0 0 375 374.999991" height="500" preserveAspectRatio="xMidYMid meet" version="1.0"><defs><clipPath id="d8593dbff7"><path d="M 11.753906 12 L 363 12 L 363 363.503906 L 11.753906 363.503906 Z M 11.753906 12 " clip-rule="nonzero"/></clipPath></defs><g clip-path="url(#d8593dbff7)"><path fill="#204e4d" d="M 362.453125 54.945312 C 361.691406 52.511719 359.636719 50.703125 357.125 50.246094 L 329.695312 45.304688 L 324.75 17.875 C 324.300781 15.359375 322.488281 13.308594 320.054688 12.546875 C 317.621094 11.785156 314.960938 12.4375 313.15625 14.242188 L 279.175781 48.21875 C 250.886719 29.289062 218.011719 19.304688 183.722656 19.304688 C 137.789062 19.304688 94.605469 37.191406 62.121094 69.671875 C 29.640625 102.15625 11.753906 145.339844 11.753906 191.273438 C 11.753906 237.210938 29.640625 280.394531 62.121094 312.878906 C 94.605469 345.359375 137.789062 363.246094 183.722656 363.246094 C 229.660156 363.246094 272.84375 345.359375 305.324219 312.878906 C 337.808594 280.394531 355.695312 237.210938 355.695312 191.273438 C 355.695312 156.992188 345.710938 124.117188 326.777344 95.824219 L 360.757812 61.84375 C 362.5625 60.039062 363.214844 57.382812 362.453125 54.945312 Z M 178.875 196.125 C 180.214844 197.460938 181.96875 198.132812 183.722656 198.132812 C 185.480469 198.132812 187.234375 197.460938 188.570312 196.125 L 225.773438 158.921875 C 232.6875 167.886719 236.816406 179.105469 236.816406 191.273438 C 236.816406 220.550781 213 244.367188 183.722656 244.367188 C 154.449219 244.367188 130.632812 220.550781 130.632812 191.273438 C 130.632812 162 154.449219 138.183594 183.722656 138.183594 C 195.894531 138.183594 207.113281 142.3125 216.078125 149.226562 L 178.875 186.425781 C 176.199219 189.105469 176.199219 193.445312 178.875 196.125 Z M 225.839844 139.464844 C 214.339844 130.097656 199.675781 124.472656 183.722656 124.472656 C 146.890625 124.472656 116.921875 154.441406 116.921875 191.273438 C 116.921875 228.109375 146.890625 258.078125 183.722656 258.078125 C 220.558594 258.078125 250.527344 228.109375 250.527344 191.273438 C 250.527344 175.320312 244.902344 160.660156 235.535156 149.160156 L 263.25 121.445312 C 279.648438 140.101562 289.609375 164.542969 289.609375 191.273438 C 289.609375 249.660156 242.109375 297.160156 183.722656 297.160156 C 125.339844 297.160156 77.839844 249.660156 77.839844 191.273438 C 77.839844 132.890625 125.339844 85.390625 183.722656 85.390625 C 210.457031 85.390625 234.898438 95.351562 253.554688 111.75 Z M 341.984375 191.273438 C 341.984375 278.539062 270.988281 349.535156 183.722656 349.535156 C 96.460938 349.535156 25.464844 278.539062 25.464844 191.273438 C 25.464844 104.011719 96.460938 33.015625 183.722656 33.015625 C 214.359375 33.015625 243.765625 41.675781 269.277344 58.121094 L 266.554688 60.84375 C 264.96875 62.433594 264.257812 64.699219 264.65625 66.90625 L 269.808594 95.496094 L 263.261719 102.042969 C 242.109375 83.167969 214.238281 71.679688 183.726562 71.679688 C 117.777344 71.679688 64.128906 125.332031 64.128906 191.277344 C 64.128906 257.222656 117.777344 310.875 183.726562 310.875 C 249.671875 310.875 303.324219 257.222656 303.324219 191.277344 C 303.324219 160.765625 291.832031 132.890625 272.957031 111.738281 L 279.503906 105.195312 L 308.09375 110.347656 C 308.496094 110.417969 308.90625 110.453125 309.308594 110.453125 C 311.109375 110.453125 312.859375 109.742188 314.15625 108.445312 L 316.878906 105.726562 C 333.324219 131.238281 341.984375 160.644531 341.984375 191.273438 Z M 306.996094 96.214844 L 283.09375 91.90625 L 278.785156 68.003906 L 313.582031 33.207031 L 317.046875 52.421875 C 317.554688 55.238281 319.757812 57.445312 322.578125 57.953125 L 341.792969 61.417969 Z M 306.996094 96.214844 " fill-opacity="1" fill-rule="nonzero"/></g></svg>