<svg xmlns="http://www.w3.org/2000/svg" xmlns:xlink="http://www.w3.org/1999/xlink" width="500" zoomAndPan="magnify" viewBox="0 0 375 374.999991" height="500" preserveAspectRatio="xMidYMid meet" version="1.0"><defs><clipPath id="1ed6d58a2e"><path d="M 342 67 L 360.425781 67 L 360.425781 86 L 342 86 Z M 342 67 " clip-rule="nonzero"/></clipPath><clipPath id="75a1c89e9f"><path d="M 14.675781 10.246094 L 272 10.246094 L 272 364.996094 L 14.675781 364.996094 Z M 14.675781 10.246094 " clip-rule="nonzero"/></clipPath></defs><path fill="#204e4d" d="M 313.269531 165.621094 C 311.652344 165.621094 310.128906 164.941406 308.941406 163.667969 C 306.816406 161.296875 307.074219 157.722656 309.449219 155.597656 L 345.472656 124.085938 L 340.886719 118.820312 L 344.878906 115.25 C 346.410156 113.890625 347.769531 112.269531 348.871094 110.574219 L 357.871094 120.773438 C 358.886719 121.875 359.402344 123.40625 359.316406 124.9375 C 359.230469 126.472656 358.550781 127.832031 357.363281 128.84375 L 317.015625 164.1875 C 315.988281 165.113281 314.628906 165.621094 313.269531 165.621094 Z M 313.269531 165.621094 " fill-opacity="1" fill-rule="evenodd"/><path fill="#204e4d" d="M 237.246094 18.492188 L 237.246094 45.417969 L 263.75 45.417969 Z M 237.246094 18.492188 " fill-opacity="1" fill-rule="evenodd"/><path fill="#204e4d" d="M 318.710938 86.199219 L 310.464844 93.332031 L 328.722656 114.222656 L 337.300781 106.660156 C 340.195312 103.851562 341.554688 99.773438 340.949219 95.78125 C 340.863281 95.445312 340.863281 95.1875 340.863281 94.84375 C 340.441406 92.890625 339.503906 90.9375 338.058594 89.316406 L 337.972656 89.230469 L 336.191406 87.105469 C 334.832031 85.574219 333.136719 84.386719 331.257812 83.707031 C 330.925781 83.707031 330.664062 83.621094 330.320312 83.53125 C 326.433594 82.367188 321.9375 83.394531 318.710938 86.199219 Z M 318.710938 86.199219 " fill-opacity="1" fill-rule="evenodd"/><g clip-path="url(#1ed6d58a2e)"><path fill="#204e4d" d="M 342.148438 77.027344 C 343.160156 77.878906 344.101562 78.804688 344.953125 79.746094 C 344.953125 79.746094 344.953125 79.746094 345.039062 79.832031 L 346.820312 81.957031 C 347.757812 82.972656 348.515625 84.082031 349.195312 85.183594 L 360.320312 75.417969 L 353.1875 67.261719 Z M 342.148438 77.027344 " fill-opacity="1" fill-rule="evenodd"/></g><path fill="#204e4d" d="M 301.886719 100.894531 L 230.953125 163.074219 C 230.78125 163.25 230.621094 163.410156 230.445312 163.582031 L 209.382812 182.015625 L 227.640625 202.832031 L 320.15625 121.789062 Z M 301.886719 100.894531 " fill-opacity="1" fill-rule="evenodd"/><path fill="#204e4d" d="M 202.324219 191.273438 L 184.574219 222.199219 L 217.53125 208.605469 Z M 202.324219 191.273438 " fill-opacity="1" fill-rule="evenodd"/><path fill="#204e4d" d="M 46.964844 63.6875 L 46.964844 92.316406 L 67.519531 92.316406 L 57.238281 82.03125 C 55.023438 79.820312 55.023438 76.171875 57.238281 73.960938 C 59.449219 71.75 63.097656 71.75 65.308594 73.960938 L 75.507812 84.160156 L 75.507812 63.6875 Z M 46.964844 63.6875 " fill-opacity="1" fill-rule="evenodd"/><path fill="#204e4d" d="M 46.964844 144.644531 L 75.507812 144.644531 L 75.507812 173.273438 L 46.964844 173.273438 Z M 46.964844 144.644531 " fill-opacity="1" fill-rule="evenodd"/><path fill="#204e4d" d="M 46.964844 306.632812 L 75.507812 306.632812 L 75.507812 335.261719 L 46.964844 335.261719 Z M 46.964844 306.632812 " fill-opacity="1" fill-rule="evenodd"/><path fill="#204e4d" d="M 46.964844 225.675781 L 75.507812 225.675781 L 75.507812 254.304688 L 46.964844 254.304688 Z M 46.964844 225.675781 " fill-opacity="1" fill-rule="evenodd"/><g clip-path="url(#75a1c89e9f)"><path fill="#204e4d" d="M 81.28125 265.777344 L 41.265625 265.777344 C 38.125 265.777344 35.578125 263.230469 35.578125 260.089844 L 35.578125 219.988281 C 35.578125 216.847656 38.125 214.300781 41.265625 214.300781 L 81.28125 214.300781 C 84.417969 214.300781 86.964844 216.847656 86.964844 219.988281 L 86.964844 260.089844 C 86.964844 263.230469 84.417969 265.777344 81.28125 265.777344 Z M 14.761719 10.25 L 14.761719 241.90625 C 14.761719 242.242188 14.761719 242.585938 14.675781 242.84375 L 14.675781 364.742188 L 271.722656 364.742188 L 271.722656 242.84375 C 271.636719 242.511719 271.636719 242.164062 271.636719 241.90625 L 271.636719 179.46875 L 230.945312 215.144531 C 230.769531 215.316406 230.609375 215.402344 230.4375 215.5625 C 230.015625 215.898438 229.582031 216.15625 229.078125 216.332031 L 185.15625 234.339844 L 240.980469 234.339844 C 244.121094 234.339844 246.667969 236.886719 246.667969 240.027344 C 246.667969 243.167969 244.121094 245.714844 240.980469 245.714844 L 125.363281 245.714844 C 122.222656 245.714844 119.675781 243.167969 119.675781 240.027344 C 119.675781 236.886719 122.222656 234.339844 125.363281 234.339844 L 165.625 234.339844 C 165.539062 233.242188 165.796875 232.042969 166.390625 231.027344 L 196.292969 178.875 C 196.628906 178.28125 197.058594 177.773438 197.566406 177.253906 L 211.757812 164.855469 L 125.363281 164.855469 C 122.222656 164.855469 119.675781 162.308594 119.675781 159.167969 C 119.675781 156.027344 122.222656 153.480469 125.363281 153.480469 L 224.75 153.480469 L 271.636719 112.367188 L 271.636719 57.0625 L 231.460938 57.0625 C 228.320312 57.0625 225.773438 54.515625 225.773438 51.375 L 225.773438 10.507812 Z M 81.28125 184.734375 L 41.265625 184.734375 C 38.125 184.734375 35.578125 182.1875 35.578125 179.046875 L 35.578125 138.945312 C 35.578125 135.804688 38.125 133.257812 41.265625 133.257812 L 81.28125 133.257812 C 84.417969 133.257812 86.964844 135.804688 86.964844 138.945312 L 86.964844 179.046875 C 86.964844 182.1875 84.417969 184.734375 81.28125 184.734375 Z M 81.28125 103.777344 L 41.265625 103.777344 C 38.125 103.777344 35.578125 101.230469 35.578125 98.089844 L 35.578125 57.988281 C 35.578125 54.851562 38.125 52.304688 41.265625 52.304688 L 81.28125 52.304688 C 84.417969 52.304688 86.964844 54.851562 86.964844 57.988281 L 86.964844 80.242188 L 106.421875 52.800781 C 108.289062 50.253906 111.863281 49.574219 114.410156 51.441406 C 116.957031 53.21875 117.636719 56.792969 115.769531 59.425781 L 86.039062 101.394531 C 85.097656 102.753906 83.492188 103.605469 81.871094 103.765625 C 81.699219 103.777344 81.527344 103.777344 81.28125 103.777344 Z M 41.265625 295.246094 L 81.28125 295.246094 C 84.417969 295.246094 86.964844 297.792969 86.964844 300.933594 L 86.964844 341.035156 C 86.964844 344.175781 84.417969 346.722656 81.28125 346.722656 L 41.265625 346.722656 C 38.125 346.722656 35.578125 344.175781 35.578125 341.035156 L 35.578125 300.933594 C 35.578125 297.804688 38.125 295.246094 41.265625 295.246094 Z M 125.363281 315.296875 L 241.066406 315.296875 C 244.207031 315.296875 246.753906 317.84375 246.753906 320.984375 C 246.753906 324.125 244.207031 326.671875 241.066406 326.671875 L 125.363281 326.671875 C 122.222656 326.671875 119.675781 324.125 119.675781 320.984375 C 119.675781 317.84375 122.222656 315.296875 125.363281 315.296875 Z M 241.066406 83.726562 L 125.363281 83.726562 C 122.222656 83.726562 119.675781 81.179688 119.675781 78.039062 C 119.675781 74.898438 122.222656 72.351562 125.363281 72.351562 L 241.066406 72.351562 C 244.207031 72.351562 246.753906 74.898438 246.753906 78.039062 C 246.753906 81.179688 244.207031 83.726562 241.066406 83.726562 Z M 241.066406 83.726562 " fill-opacity="1" fill-rule="evenodd"/></g></svg>