<svg xmlns="http://www.w3.org/2000/svg" xmlns:xlink="http://www.w3.org/1999/xlink" width="500" zoomAndPan="magnify" viewBox="0 0 375 374.999991" height="500" preserveAspectRatio="xMidYMid meet" version="1.0"><defs><clipPath id="fc4214ec22"><path d="M 145 147 L 366 147 L 366 366.792969 L 145 366.792969 Z M 145 147 " clip-rule="nonzero"/></clipPath></defs><path fill="#204e4d" d="M 130.800781 140.945312 C 131.195312 140.550781 131.621094 140.203125 132.082031 139.894531 C 132.542969 139.585938 133.03125 139.324219 133.542969 139.113281 C 134.058594 138.898438 134.585938 138.738281 135.128906 138.632812 C 135.675781 138.523438 136.222656 138.46875 136.777344 138.46875 C 137.332031 138.46875 137.882812 138.523438 138.425781 138.632812 C 138.972656 138.738281 139.5 138.898438 140.011719 139.113281 C 140.523438 139.324219 141.011719 139.585938 141.472656 139.894531 C 141.933594 140.203125 142.363281 140.550781 142.753906 140.945312 L 153.8125 151.992188 C 154.265625 151.46875 154.703125 150.9375 155.125 150.386719 C 155.546875 149.839844 155.949219 149.28125 156.339844 148.707031 C 156.726562 148.136719 157.097656 147.550781 157.449219 146.957031 C 157.800781 146.363281 158.136719 145.757812 158.453125 145.144531 C 158.769531 144.527344 159.066406 143.902344 159.34375 143.273438 C 159.625 142.640625 159.882812 142 160.125 141.351562 C 160.363281 140.703125 160.582031 140.046875 160.785156 139.386719 C 160.984375 138.722656 161.164062 138.054688 161.328125 137.382812 C 161.488281 136.710938 161.628906 136.035156 161.746094 135.355469 C 161.867188 134.671875 161.964844 133.988281 162.042969 133.300781 C 162.125 132.617188 162.179688 131.925781 162.21875 131.238281 C 162.253906 130.546875 162.273438 129.855469 162.265625 129.164062 C 162.261719 128.472656 162.238281 127.78125 162.191406 127.09375 C 162.144531 126.402344 162.078125 125.714844 161.992188 125.027344 C 161.90625 124.34375 161.796875 123.660156 161.667969 122.980469 C 161.539062 122.300781 161.390625 121.628906 161.222656 120.957031 C 161.050781 120.285156 160.863281 119.621094 160.652344 118.960938 C 160.445312 118.304688 160.214844 117.652344 159.96875 117.007812 C 159.71875 116.363281 159.453125 115.722656 159.164062 115.09375 C 158.878906 114.464844 158.574219 113.847656 158.25 113.234375 C 157.925781 112.625 157.582031 112.023438 157.222656 111.433594 C 156.863281 110.84375 156.484375 110.265625 156.089844 109.699219 C 155.695312 109.132812 155.28125 108.578125 154.851562 108.035156 C 154.425781 107.492188 153.980469 106.960938 153.519531 106.445312 C 153.058594 105.929688 152.582031 105.429688 152.09375 104.941406 C 151.601562 104.453125 151.097656 103.984375 150.578125 103.527344 C 150.058594 103.070312 149.527344 102.628906 148.980469 102.203125 C 148.4375 101.777344 147.878906 101.371094 147.308594 100.980469 C 146.738281 100.589844 146.15625 100.214844 145.566406 99.859375 C 144.972656 99.503906 144.371094 99.164062 143.757812 98.84375 C 143.144531 98.527344 142.519531 98.226562 141.890625 97.941406 C 141.257812 97.660156 140.621094 97.398438 139.972656 97.152344 C 139.328125 96.910156 138.671875 96.683594 138.011719 96.480469 C 137.351562 96.277344 136.6875 96.089844 136.015625 95.925781 C 135.34375 95.761719 134.667969 95.617188 133.988281 95.496094 C 133.308594 95.371094 132.625 95.269531 131.9375 95.183594 C 131.25 95.101562 130.5625 95.039062 129.871094 95 C 129.183594 94.957031 128.492188 94.9375 127.800781 94.9375 C 127.109375 94.9375 126.417969 94.960938 125.726562 95.003906 C 125.039062 95.042969 124.347656 95.105469 123.664062 95.191406 C 122.976562 95.273438 122.292969 95.378906 121.613281 95.503906 C 120.933594 95.628906 120.257812 95.773438 119.585938 95.9375 C 118.914062 96.101562 118.25 96.289062 117.589844 96.492188 C 116.929688 96.699219 116.277344 96.925781 115.628906 97.167969 C 114.984375 97.414062 114.34375 97.675781 113.714844 97.960938 C 113.082031 98.242188 112.460938 98.546875 111.847656 98.867188 C 111.234375 99.1875 110.632812 99.527344 110.042969 99.882812 C 109.449219 100.238281 108.867188 100.613281 108.300781 101.003906 C 107.730469 101.398438 107.171875 101.804688 106.628906 102.230469 C 106.082031 102.65625 105.550781 103.097656 105.03125 103.554688 C 104.515625 104.011719 104.007812 104.484375 103.519531 104.972656 C 103.03125 105.460938 102.554688 105.964844 102.09375 106.480469 C 101.636719 106.996094 101.191406 107.527344 100.765625 108.070312 C 100.335938 108.613281 99.925781 109.167969 99.53125 109.734375 C 99.136719 110.304688 98.757812 110.882812 98.398438 111.472656 C 98.039062 112.0625 97.699219 112.664062 97.375 113.273438 C 97.050781 113.886719 96.746094 114.507812 96.460938 115.136719 C 96.175781 115.765625 95.910156 116.402344 95.660156 117.046875 C 95.414062 117.695312 95.1875 118.347656 94.976562 119.003906 C 94.769531 119.664062 94.582031 120.328125 94.414062 121 C 94.246094 121.671875 94.097656 122.347656 93.96875 123.023438 C 93.839844 123.703125 93.734375 124.386719 93.648438 125.074219 C 93.5625 125.757812 93.496094 126.445312 93.449219 127.136719 C 93.40625 127.828125 93.378906 128.515625 93.378906 129.207031 C 93.375 129.898438 93.390625 130.589844 93.429688 131.28125 C 93.46875 131.972656 93.527344 132.660156 93.605469 133.347656 C 93.683594 134.035156 93.785156 134.71875 93.90625 135.398438 C 94.027344 136.078125 94.167969 136.753906 94.328125 137.425781 C 94.488281 138.101562 94.671875 138.765625 94.875 139.429688 C 95.074219 140.089844 95.296875 140.742188 95.535156 141.390625 C 95.777344 142.039062 96.039062 142.679688 96.316406 143.3125 C 96.597656 143.945312 96.894531 144.566406 97.210938 145.183594 C 97.53125 145.796875 97.863281 146.402344 98.21875 146.996094 C 98.570312 147.589844 98.941406 148.171875 99.332031 148.746094 C 99.71875 149.316406 100.125 149.875 100.546875 150.421875 C 100.96875 150.96875 101.410156 151.503906 101.863281 152.027344 C 102.316406 152.546875 102.785156 153.054688 103.273438 153.546875 C 103.757812 154.039062 104.257812 154.515625 104.769531 154.980469 C 105.285156 155.441406 105.8125 155.890625 106.351562 156.320312 C 106.890625 156.75 107.445312 157.164062 108.011719 157.5625 C 108.578125 157.960938 109.152344 158.339844 109.742188 158.703125 C 110.332031 159.066406 110.929688 159.410156 111.539062 159.738281 C 112.148438 160.066406 112.765625 160.375 113.394531 160.664062 C 114.023438 160.953125 114.65625 161.222656 115.300781 161.472656 C 115.945312 161.726562 116.597656 161.957031 117.253906 162.167969 C 117.914062 162.382812 118.578125 162.574219 119.246094 162.746094 C 119.914062 162.917969 120.589844 163.070312 121.269531 163.203125 C 121.949219 163.332031 122.628906 163.445312 123.316406 163.535156 C 124 163.625 124.6875 163.695312 125.378906 163.742188 C 126.066406 163.792969 126.757812 163.820312 127.449219 163.828125 C 128.140625 163.835938 128.832031 163.824219 129.519531 163.789062 C 130.210938 163.753906 130.902344 163.699219 131.589844 163.625 C 132.273438 163.546875 132.960938 163.453125 133.640625 163.335938 C 134.324219 163.21875 135 163.082031 135.671875 162.925781 C 136.347656 162.765625 137.015625 162.589844 137.675781 162.390625 C 138.339844 162.191406 138.996094 161.976562 139.644531 161.738281 L 130.800781 152.898438 C 130.410156 152.503906 130.058594 152.078125 129.75 151.617188 C 129.441406 151.152344 129.183594 150.667969 128.96875 150.15625 C 128.757812 149.640625 128.597656 149.113281 128.488281 148.570312 C 128.382812 148.023438 128.328125 147.476562 128.328125 146.921875 C 128.328125 146.367188 128.382812 145.816406 128.488281 145.269531 C 128.597656 144.726562 128.757812 144.199219 128.96875 143.6875 C 129.183594 143.171875 129.441406 142.6875 129.75 142.226562 C 130.058594 141.761719 130.410156 141.335938 130.800781 140.945312 Z M 130.800781 140.945312 " fill-opacity="1" fill-rule="nonzero"/><path fill="#204e4d" d="M 212.09375 46.421875 C 208.910156 43.226562 205.554688 40.222656 202.027344 37.410156 C 198.5 34.597656 194.820312 31.996094 190.996094 29.605469 C 187.171875 27.214844 183.21875 25.050781 179.144531 23.109375 C 175.074219 21.171875 170.902344 19.472656 166.632812 18.011719 C 162.363281 16.550781 158.027344 15.339844 153.617188 14.375 C 149.210938 13.410156 144.761719 12.703125 140.273438 12.246094 C 135.785156 11.792969 131.285156 11.59375 126.773438 11.65625 C 122.265625 11.71875 117.769531 12.035156 113.296875 12.609375 C 110.898438 12.917969 108.511719 13.296875 106.136719 13.746094 C 103.761719 14.199219 101.40625 14.726562 99.0625 15.320312 C 96.71875 15.917969 94.398438 16.585938 92.097656 17.324219 C 89.796875 18.0625 87.519531 18.875 85.269531 19.75 C 83.015625 20.628906 80.792969 21.578125 78.601562 22.59375 C 76.40625 23.605469 74.246094 24.6875 72.117188 25.835938 C 69.992188 26.984375 67.902344 28.195312 65.847656 29.46875 C 63.792969 30.746094 61.78125 32.082031 59.8125 33.480469 C 57.839844 34.882812 55.914062 36.339844 54.03125 37.855469 C 52.148438 39.375 50.316406 40.945312 48.53125 42.574219 C 46.746094 44.207031 45.011719 45.886719 43.328125 47.625 C 41.648438 49.359375 40.019531 51.144531 38.449219 52.980469 C 36.875 54.816406 35.359375 56.699219 33.902344 58.625 C 32.445312 60.554688 31.050781 62.527344 29.710938 64.539062 C 28.375 66.554688 27.101562 68.605469 25.890625 70.699219 C 24.679688 72.792969 23.535156 74.917969 22.457031 77.082031 C 21.375 79.242188 20.363281 81.4375 19.417969 83.660156 C 18.472656 85.886719 17.59375 88.136719 16.789062 90.414062 C 15.980469 92.691406 15.242188 94.992188 14.574219 97.316406 C 13.910156 99.640625 13.316406 101.980469 12.792969 104.34375 C 12.269531 106.703125 11.820312 109.074219 11.441406 111.464844 C 11.0625 113.851562 10.757812 116.246094 10.527344 118.652344 C 10.296875 121.058594 10.140625 123.46875 10.058594 125.886719 C 9.976562 128.300781 9.96875 130.71875 10.03125 133.132812 C 10.097656 135.550781 10.238281 137.960938 10.449219 140.371094 C 10.664062 142.777344 10.949219 145.175781 11.3125 147.566406 C 11.671875 149.957031 12.105469 152.332031 12.609375 154.695312 C 13.117188 157.058594 13.695312 159.40625 14.34375 161.734375 C 14.996094 164.0625 15.714844 166.367188 16.507812 168.652344 C 17.296875 170.9375 18.160156 173.195312 19.089844 175.425781 C 20.019531 177.65625 21.015625 179.855469 22.078125 182.027344 C 23.144531 184.195312 24.273438 186.332031 25.46875 188.433594 C 26.042969 189.375 26.433594 190.386719 26.636719 191.472656 C 26.839844 192.558594 26.839844 193.644531 26.644531 194.730469 L 20.371094 224.5625 C 20.222656 225.269531 20.121094 225.980469 20.066406 226.699219 C 20.007812 227.421875 19.996094 228.140625 20.03125 228.863281 C 20.070312 229.582031 20.148438 230.300781 20.277344 231.011719 C 20.40625 231.722656 20.578125 232.421875 20.792969 233.109375 C 21.011719 233.800781 21.269531 234.472656 21.574219 235.125 C 21.878906 235.78125 22.222656 236.414062 22.605469 237.027344 C 22.988281 237.636719 23.410156 238.222656 23.871094 238.78125 C 24.328125 239.335938 24.820312 239.863281 25.347656 240.359375 C 25.875 240.851562 26.429688 241.308594 27.015625 241.734375 C 27.601562 242.15625 28.210938 242.539062 28.847656 242.886719 C 29.480469 243.230469 30.136719 243.53125 30.808594 243.792969 C 31.480469 244.054688 32.167969 244.273438 32.871094 244.445312 C 33.570312 244.617188 34.28125 244.746094 34.996094 244.828125 C 35.714844 244.910156 36.433594 244.945312 37.15625 244.933594 C 37.878906 244.925781 38.597656 244.867188 39.3125 244.765625 C 40.027344 244.664062 40.734375 244.515625 41.429688 244.324219 L 71.074219 236.089844 C 72.140625 235.828125 73.214844 235.761719 74.304688 235.886719 C 75.394531 236.015625 76.429688 236.332031 77.40625 236.835938 C 85.363281 240.636719 93.648438 243.511719 102.253906 245.457031 C 110.859375 247.398438 119.570312 248.367188 128.394531 248.355469 C 134.382812 248.351562 140.34375 247.914062 146.269531 247.039062 C 148.957031 246.625 151.625 246.125 154.277344 245.527344 C 156.929688 244.933594 159.558594 244.246094 162.164062 243.472656 C 164.769531 242.695312 167.34375 241.832031 169.886719 240.878906 C 172.433594 239.921875 174.941406 238.882812 177.414062 237.757812 C 179.886719 236.632812 182.320312 235.421875 184.710938 234.125 C 187.101562 232.832031 189.441406 231.457031 191.738281 230.003906 C 194.03125 228.546875 196.277344 227.015625 198.464844 225.40625 C 200.65625 223.796875 202.785156 222.113281 204.859375 220.355469 C 206.933594 218.597656 208.945312 216.773438 210.894531 214.878906 C 212.839844 212.984375 214.722656 211.023438 216.535156 209 C 218.347656 206.972656 220.089844 204.890625 221.757812 202.742188 C 223.425781 200.597656 225.019531 198.398438 226.539062 196.144531 C 228.054688 193.890625 229.492188 191.585938 230.851562 189.234375 C 232.210938 186.878906 233.488281 184.480469 234.683594 182.039062 C 235.875 179.597656 236.984375 177.121094 238.007812 174.601562 C 239.03125 172.082031 239.964844 169.535156 240.8125 166.953125 C 241.660156 164.367188 242.417969 161.761719 243.085938 159.125 C 243.753906 156.492188 244.328125 153.835938 244.8125 151.164062 C 245.296875 148.488281 245.691406 145.800781 245.988281 143.101562 C 246.289062 140.398438 246.496094 137.691406 246.609375 134.976562 C 246.722656 132.261719 246.742188 129.542969 246.667969 126.828125 C 246.59375 124.109375 246.425781 121.398438 246.164062 118.695312 C 245.902344 115.988281 245.550781 113.296875 245.101562 110.613281 C 244.65625 107.933594 244.117188 105.273438 243.488281 102.628906 C 242.859375 99.984375 242.136719 97.367188 241.328125 94.773438 C 240.515625 92.175781 239.617188 89.613281 238.632812 87.082031 C 237.644531 84.550781 236.570312 82.054688 235.414062 79.597656 C 234.253906 77.136719 233.011719 74.722656 231.6875 72.351562 C 230.363281 69.976562 228.957031 67.652344 227.46875 65.375 C 225.984375 63.101562 224.421875 60.878906 222.785156 58.710938 C 221.144531 56.542969 219.433594 54.433594 217.652344 52.382812 C 215.867188 50.332031 214.015625 48.34375 212.09375 46.421875 Z M 176.59375 174.757812 C 176.996094 175.144531 177.355469 175.570312 177.675781 176.035156 C 177.996094 176.496094 178.265625 176.984375 178.488281 177.5 C 178.707031 178.015625 178.875 178.546875 178.992188 179.097656 C 179.105469 179.644531 179.167969 180.203125 179.171875 180.761719 C 179.175781 181.324219 179.125 181.878906 179.019531 182.429688 C 178.914062 182.980469 178.753906 183.515625 178.542969 184.035156 C 178.332031 184.554688 178.070312 185.050781 177.757812 185.515625 C 177.449219 185.984375 177.09375 186.417969 176.695312 186.8125 C 176.300781 187.210938 175.867188 187.5625 175.402344 187.875 C 174.933594 188.183594 174.441406 188.445312 173.921875 188.660156 C 173.402344 188.871094 172.867188 189.03125 172.316406 189.136719 C 171.761719 189.242188 171.207031 189.292969 170.644531 189.289062 C 170.085938 189.285156 169.53125 189.222656 168.980469 189.109375 C 168.429688 188.992188 167.898438 188.824219 167.382812 188.601562 C 166.867188 188.382812 166.378906 188.109375 165.917969 187.792969 C 165.457031 187.472656 165.03125 187.113281 164.640625 186.707031 L 152.5 174.59375 C 151.574219 175.105469 150.628906 175.589844 149.671875 176.039062 C 148.714844 176.492188 147.742188 176.914062 146.757812 177.308594 C 145.773438 177.699219 144.777344 178.0625 143.773438 178.390625 C 142.765625 178.722656 141.75 179.019531 140.726562 179.289062 C 139.699219 179.554688 138.667969 179.792969 137.628906 179.996094 C 136.589844 180.199219 135.542969 180.371094 134.492188 180.507812 C 133.441406 180.648438 132.386719 180.753906 131.332031 180.828125 C 130.273438 180.898438 129.214844 180.941406 128.15625 180.949219 C 127.097656 180.957031 126.039062 180.929688 124.980469 180.875 C 123.921875 180.816406 122.867188 180.726562 121.816406 180.601562 C 120.765625 180.480469 119.714844 180.324219 118.671875 180.136719 C 117.632812 179.945312 116.59375 179.726562 115.566406 179.472656 C 114.539062 179.222656 113.515625 178.9375 112.503906 178.621094 C 111.496094 178.308594 110.492188 177.960938 109.503906 177.582031 C 108.515625 177.203125 107.535156 176.796875 106.574219 176.359375 C 105.609375 175.921875 104.65625 175.453125 103.722656 174.957031 C 102.785156 174.457031 101.867188 173.933594 100.964844 173.378906 C 100.0625 172.824219 99.175781 172.242188 98.308594 171.632812 C 97.441406 171.023438 96.59375 170.390625 95.765625 169.726562 C 94.941406 169.066406 94.132812 168.378906 93.347656 167.667969 C 92.5625 166.957031 91.800781 166.222656 91.0625 165.464844 C 90.324219 164.703125 89.609375 163.925781 88.917969 163.121094 C 88.226562 162.316406 87.558594 161.492188 86.921875 160.648438 C 86.28125 159.804688 85.667969 158.941406 85.082031 158.058594 C 84.492188 157.175781 83.9375 156.277344 83.40625 155.359375 C 82.875 154.445312 82.371094 153.511719 81.898438 152.5625 C 81.425781 151.613281 80.984375 150.652344 80.570312 149.675781 C 80.15625 148.703125 79.773438 147.714844 79.421875 146.714844 C 79.070312 145.714844 78.75 144.707031 78.460938 143.6875 C 78.171875 142.667969 77.914062 141.640625 77.6875 140.605469 C 77.460938 139.570312 77.269531 138.53125 77.109375 137.484375 C 76.945312 136.433594 76.816406 135.382812 76.722656 134.328125 C 76.625 133.273438 76.5625 132.21875 76.53125 131.15625 C 76.5 130.097656 76.503906 129.039062 76.539062 127.980469 C 76.574219 126.921875 76.640625 125.867188 76.742188 124.8125 C 76.84375 123.757812 76.976562 122.707031 77.144531 121.660156 C 77.308594 120.613281 77.507812 119.574219 77.738281 118.539062 C 77.96875 117.503906 78.230469 116.476562 78.523438 115.460938 C 78.816406 114.441406 79.140625 113.433594 79.5 112.4375 C 79.855469 111.441406 80.242188 110.453125 80.660156 109.480469 C 81.078125 108.507812 81.523438 107.546875 82 106.601562 C 82.476562 105.65625 82.984375 104.722656 83.519531 103.808594 C 84.054688 102.894531 84.617188 101.996094 85.207031 101.117188 C 85.796875 100.238281 86.414062 99.378906 87.058594 98.535156 C 87.699219 97.695312 88.371094 96.875 89.066406 96.074219 C 89.757812 95.273438 90.476562 94.496094 91.21875 93.742188 C 91.964844 92.984375 92.730469 92.253906 93.515625 91.546875 C 94.304688 90.835938 95.113281 90.152344 95.945312 89.496094 C 96.773438 88.839844 97.625 88.207031 98.496094 87.601562 C 99.363281 86.996094 100.253906 86.417969 101.15625 85.867188 C 102.0625 85.320312 102.984375 84.796875 103.921875 84.304688 C 104.859375 83.8125 105.8125 83.347656 106.777344 82.914062 C 107.746094 82.480469 108.722656 82.074219 109.714844 81.703125 C 110.707031 81.328125 111.710938 80.988281 112.722656 80.675781 C 113.734375 80.363281 114.757812 80.085938 115.785156 79.835938 C 116.816406 79.589844 117.851562 79.375 118.898438 79.191406 C 119.941406 79.007812 120.988281 78.855469 122.039062 78.738281 C 123.09375 78.617188 124.148438 78.535156 125.207031 78.480469 C 126.265625 78.425781 127.324219 78.40625 128.382812 78.417969 C 129.441406 78.433594 130.5 78.476562 131.558594 78.554688 C 132.613281 78.632812 133.667969 78.742188 134.71875 78.886719 C 135.765625 79.03125 136.8125 79.207031 137.851562 79.414062 C 138.886719 79.621094 139.921875 79.863281 140.945312 80.136719 C 141.96875 80.40625 142.980469 80.710938 143.988281 81.046875 C 144.992188 81.378906 145.988281 81.746094 146.96875 82.144531 C 147.953125 82.539062 148.921875 82.964844 149.875 83.421875 C 150.832031 83.878906 151.773438 84.363281 152.699219 84.878906 C 153.625 85.394531 154.535156 85.9375 155.425781 86.507812 C 156.320312 87.082031 157.191406 87.679688 158.046875 88.304688 C 158.902344 88.929688 159.738281 89.582031 160.550781 90.257812 C 161.367188 90.9375 162.160156 91.636719 162.929688 92.363281 C 163.703125 93.089844 164.449219 93.839844 165.175781 94.613281 C 165.898438 95.386719 166.597656 96.179688 167.273438 96.996094 C 167.949219 97.8125 168.601562 98.648438 169.222656 99.507812 C 169.847656 100.363281 170.445312 101.238281 171.011719 102.132812 C 171.582031 103.023438 172.125 103.933594 172.636719 104.863281 C 173.148438 105.789062 173.632812 106.730469 174.085938 107.6875 C 174.542969 108.644531 174.964844 109.613281 175.359375 110.597656 C 175.753906 111.582031 176.117188 112.574219 176.453125 113.582031 C 176.785156 114.585938 177.085938 115.601562 177.355469 116.628906 C 177.625 117.652344 177.863281 118.683594 178.070312 119.722656 C 178.273438 120.761719 178.449219 121.808594 178.589844 122.855469 C 178.730469 123.90625 178.839844 124.960938 178.914062 126.015625 C 178.988281 127.074219 179.03125 128.132812 179.042969 129.191406 C 179.054688 130.25 179.03125 131.308594 178.976562 132.367188 C 178.917969 133.425781 178.832031 134.480469 178.710938 135.535156 C 178.589844 136.585938 178.4375 137.632812 178.25 138.675781 C 178.066406 139.71875 177.847656 140.757812 177.597656 141.785156 C 177.347656 142.816406 177.066406 143.835938 176.75 144.847656 C 176.4375 145.859375 176.09375 146.863281 175.71875 147.851562 C 175.34375 148.84375 174.9375 149.820312 174.5 150.785156 C 174.066406 151.753906 173.597656 152.703125 173.105469 153.640625 C 172.609375 154.578125 172.085938 155.496094 171.53125 156.402344 C 170.980469 157.304688 170.402344 158.191406 169.792969 159.058594 C 169.1875 159.929688 168.554688 160.777344 167.894531 161.605469 C 167.234375 162.433594 166.550781 163.242188 165.839844 164.027344 Z M 176.59375 174.757812 " fill-opacity="1" fill-rule="nonzero"/><path fill="#204e4d" d="M 238.695312 273.460938 L 271.238281 272.859375 L 255.121094 240.613281 Z M 238.695312 273.460938 " fill-opacity="1" fill-rule="nonzero"/><g clip-path="url(#fc4214ec22)"><path fill="#204e4d" d="M 349.707031 316.910156 C 349.523438 315.816406 349.53125 314.722656 349.734375 313.632812 C 349.9375 312.542969 350.324219 311.523438 350.890625 310.570312 C 351.992188 308.617188 353.027344 306.636719 354.007812 304.621094 C 354.984375 302.605469 355.898438 300.5625 356.75 298.492188 C 357.605469 296.421875 358.390625 294.328125 359.117188 292.207031 C 359.839844 290.089844 360.5 287.949219 361.09375 285.792969 C 361.6875 283.632812 362.214844 281.457031 362.671875 279.265625 C 363.132812 277.074219 363.527344 274.871094 363.851562 272.65625 C 364.179688 270.441406 364.4375 268.214844 364.625 265.984375 C 364.816406 263.753906 364.9375 261.519531 364.988281 259.28125 C 365.042969 257.042969 365.027344 254.804688 364.941406 252.566406 C 364.855469 250.328125 364.703125 248.09375 364.484375 245.867188 C 364.261719 243.636719 363.976562 241.417969 363.617188 239.207031 C 363.261719 236.996094 362.835938 234.800781 362.347656 232.613281 C 361.855469 230.429688 361.296875 228.261719 360.675781 226.109375 C 360.050781 223.960938 359.363281 221.832031 358.609375 219.722656 C 357.855469 217.613281 357.035156 215.53125 356.15625 213.472656 C 355.273438 211.414062 354.332031 209.382812 353.324219 207.382812 C 352.320312 205.382812 351.253906 203.414062 350.128906 201.476562 C 349 199.542969 347.816406 197.644531 346.574219 195.78125 C 345.332031 193.917969 344.035156 192.09375 342.679688 190.308594 C 341.328125 188.527344 339.921875 186.785156 338.460938 185.085938 C 337 183.390625 335.488281 181.738281 333.925781 180.132812 C 332.367188 178.527344 330.757812 176.972656 329.101562 175.464844 C 327.445312 173.957031 325.742188 172.503906 323.996094 171.101562 C 322.253906 169.699219 320.464844 168.351562 318.636719 167.058594 C 316.808594 165.761719 314.945312 164.527344 313.039062 163.347656 C 311.136719 162.167969 309.199219 161.046875 307.226562 159.988281 C 305.253906 158.925781 303.25 157.929688 301.21875 156.988281 C 299.183594 156.050781 297.125 155.175781 295.039062 154.363281 C 292.953125 153.550781 290.84375 152.804688 288.710938 152.121094 C 286.578125 151.4375 284.425781 150.820312 282.253906 150.269531 C 280.085938 149.71875 277.898438 149.234375 275.699219 148.816406 C 273.5 148.398438 271.289062 148.046875 269.066406 147.765625 C 266.871094 147.511719 264.671875 147.257812 262.472656 147.175781 L 262.472656 147.425781 C 262.015625 151.039062 261.410156 154.625 260.660156 158.183594 C 259.910156 161.746094 259.015625 165.269531 257.980469 168.757812 C 256.945312 172.246094 255.769531 175.6875 254.457031 179.082031 C 253.140625 182.476562 251.691406 185.8125 250.109375 189.085938 C 248.523438 192.363281 246.8125 195.570312 244.96875 198.707031 C 243.125 201.847656 241.15625 204.90625 239.066406 207.882812 C 236.972656 210.859375 234.765625 213.75 232.441406 216.550781 C 230.113281 219.347656 227.679688 222.050781 225.136719 224.652344 C 222.59375 227.253906 219.949219 229.75 217.203125 232.140625 C 214.457031 234.527344 211.617188 236.800781 208.6875 238.960938 C 205.757812 241.117188 202.746094 243.15625 199.652344 245.070312 C 196.554688 246.984375 193.390625 248.769531 190.148438 250.429688 C 186.910156 252.085938 183.609375 253.613281 180.246094 255.003906 C 176.882812 256.394531 173.46875 257.648438 170.003906 258.761719 C 166.539062 259.875 163.039062 260.847656 159.496094 261.679688 C 155.949219 262.511719 152.378906 263.199219 148.78125 263.742188 C 147.683594 263.910156 146.582031 264.078125 145.484375 264.164062 C 145.652344 266.445312 145.90625 268.726562 146.160156 271.011719 C 146.5625 274.0625 147.089844 277.097656 147.742188 280.105469 C 148.398438 283.117188 149.179688 286.09375 150.082031 289.035156 C 150.988281 291.980469 152.015625 294.882812 153.164062 297.738281 C 154.3125 300.597656 155.578125 303.402344 156.960938 306.152344 C 158.347656 308.90625 159.84375 311.59375 161.453125 314.21875 C 163.0625 316.847656 164.78125 319.398438 166.605469 321.882812 C 168.429688 324.363281 170.355469 326.761719 172.382812 329.082031 C 174.410156 331.402344 176.53125 333.632812 178.742188 335.773438 C 180.957031 337.917969 183.257812 339.960938 185.644531 341.910156 C 188.027344 343.859375 190.492188 345.703125 193.03125 347.445312 C 195.574219 349.1875 198.183594 350.816406 200.859375 352.339844 C 203.539062 353.863281 206.273438 355.269531 209.070312 356.5625 C 211.867188 357.851562 214.710938 359.027344 217.605469 360.078125 C 220.5 361.132812 223.433594 362.0625 226.40625 362.867188 C 229.378906 363.675781 232.382812 364.355469 235.410156 364.910156 C 238.441406 365.464844 241.488281 365.890625 244.554688 366.191406 C 248.019531 366.527344 251.570312 366.699219 255.035156 366.699219 C 263.144531 366.707031 271.160156 365.828125 279.074219 364.0625 C 286.988281 362.292969 294.613281 359.675781 301.949219 356.214844 C 302.917969 355.730469 303.9375 355.421875 305.011719 355.289062 C 306.085938 355.160156 307.148438 355.214844 308.203125 355.457031 L 334.15625 362.640625 C 335.546875 363.039062 336.96875 363.253906 338.417969 363.285156 C 339.863281 363.316406 341.292969 363.160156 342.699219 362.820312 C 344.109375 362.476562 345.449219 361.964844 346.722656 361.273438 C 347.996094 360.585938 349.160156 359.742188 350.214844 358.75 C 351.28125 357.753906 352.199219 356.636719 352.976562 355.402344 C 353.753906 354.167969 354.359375 352.851562 354.796875 351.460938 C 355.230469 350.070312 355.484375 348.644531 355.554688 347.1875 C 355.625 345.730469 355.507812 344.289062 355.203125 342.859375 Z M 301.164062 313.800781 C 300.667969 314.050781 300.152344 314.253906 299.613281 314.402344 C 299.078125 314.554688 298.535156 314.652344 297.976562 314.695312 C 297.421875 314.734375 296.871094 314.722656 296.316406 314.65625 C 295.765625 314.589844 295.222656 314.46875 294.695312 314.296875 C 294.164062 314.125 293.65625 313.898438 293.171875 313.625 C 292.6875 313.351562 292.234375 313.035156 291.8125 312.671875 C 291.390625 312.308594 291.007812 311.90625 290.667969 311.46875 C 290.324219 311.027344 290.027344 310.558594 289.777344 310.0625 L 279.632812 289.613281 L 230.175781 290.535156 L 220.464844 310.0625 C 220.210938 310.558594 219.917969 311.027344 219.574219 311.464844 C 219.234375 311.902344 218.851562 312.300781 218.429688 312.664062 C 218.007812 313.027344 217.558594 313.34375 217.074219 313.621094 C 216.589844 313.894531 216.085938 314.117188 215.558594 314.292969 C 215.03125 314.464844 214.488281 314.585938 213.9375 314.65625 C 213.386719 314.722656 212.835938 314.738281 212.28125 314.695312 C 211.726562 314.65625 211.179688 314.558594 210.644531 314.414062 C 210.109375 314.265625 209.59375 314.066406 209.097656 313.816406 C 208.601562 313.566406 208.132812 313.269531 207.695312 312.929688 C 207.257812 312.585938 206.855469 312.207031 206.492188 311.785156 C 206.128906 311.367188 205.8125 310.914062 205.539062 310.429688 C 205.261719 309.949219 205.039062 309.441406 204.863281 308.914062 C 204.6875 308.386719 204.566406 307.847656 204.5 307.296875 C 204.429688 306.746094 204.414062 306.191406 204.457031 305.636719 C 204.496094 305.085938 204.589844 304.539062 204.738281 304.003906 C 204.886719 303.46875 205.082031 302.953125 205.332031 302.453125 L 247.597656 217.925781 C 247.792969 217.597656 248.007812 217.289062 248.242188 216.988281 C 248.476562 216.691406 248.730469 216.410156 249 216.144531 C 249.273438 215.878906 249.5625 215.632812 249.863281 215.40625 C 250.167969 215.175781 250.484375 214.96875 250.8125 214.78125 C 251.144531 214.59375 251.484375 214.429688 251.835938 214.289062 C 252.1875 214.144531 252.546875 214.023438 252.914062 213.925781 C 253.28125 213.832031 253.652344 213.757812 254.027344 213.710938 C 254.40625 213.660156 254.78125 213.636719 255.164062 213.636719 C 255.542969 213.636719 255.917969 213.660156 256.296875 213.710938 C 256.671875 213.757812 257.042969 213.832031 257.410156 213.925781 C 257.777344 214.023438 258.136719 214.144531 258.488281 214.289062 C 258.839844 214.429688 259.179688 214.59375 259.511719 214.78125 C 259.839844 214.96875 260.15625 215.175781 260.460938 215.40625 C 260.765625 215.632812 261.050781 215.878906 261.324219 216.144531 C 261.59375 216.410156 261.847656 216.691406 262.082031 216.988281 C 262.316406 217.289062 262.53125 217.597656 262.726562 217.925781 L 292.3125 277.257812 C 292.421875 277.46875 292.53125 277.664062 292.625 277.890625 L 304.992188 302.453125 C 305.242188 302.953125 305.4375 303.46875 305.582031 304.007812 C 305.726562 304.542969 305.820312 305.089844 305.855469 305.644531 C 305.894531 306.199219 305.878906 306.753906 305.804688 307.304688 C 305.734375 307.855469 305.609375 308.394531 305.433594 308.921875 C 305.253906 309.449219 305.027344 309.953125 304.75 310.433594 C 304.472656 310.917969 304.152344 311.367188 303.785156 311.785156 C 303.417969 312.203125 303.015625 312.582031 302.574219 312.921875 C 302.132812 313.261719 301.664062 313.554688 301.164062 313.800781 Z M 301.164062 313.800781 " fill-opacity="1" fill-rule="nonzero"/></g></svg>