<svg xmlns="http://www.w3.org/2000/svg" xmlns:xlink="http://www.w3.org/1999/xlink" width="500" zoomAndPan="magnify" viewBox="0 0 375 374.999991" height="500" preserveAspectRatio="xMidYMid meet" version="1.0"><defs><clipPath id="4b1e5369f5"><path d="M 3 122 L 170 122 L 170 326.855469 L 3 326.855469 Z M 3 122 " clip-rule="nonzero"/></clipPath><clipPath id="672f95df23"><path d="M 32 47.855469 L 106 47.855469 L 106 121 L 32 121 Z M 32 47.855469 " clip-rule="nonzero"/></clipPath><clipPath id="0b14bb9776"><path d="M 131 47.855469 L 372.289062 47.855469 L 372.289062 222 L 131 222 Z M 131 47.855469 " clip-rule="nonzero"/></clipPath><clipPath id="c36a72085c"><path d="M 129 273 L 211 273 L 211 326.855469 L 129 326.855469 Z M 129 273 " clip-rule="nonzero"/></clipPath><clipPath id="45a0710839"><path d="M 291 273 L 372.289062 273 L 372.289062 326.855469 L 291 326.855469 Z M 291 273 " clip-rule="nonzero"/></clipPath><clipPath id="c7f316bc6c"><path d="M 189 260 L 313 260 L 313 326.855469 L 189 326.855469 Z M 189 260 " clip-rule="nonzero"/></clipPath></defs><g clip-path="url(#4b1e5369f5)"><path fill="#d5fdb1" d="M 94.421875 316.023438 L 94.503906 316.023438 C 96.824219 316.023438 98.734375 314.113281 98.734375 311.792969 L 98.734375 165.375 C 98.734375 163.210938 99.976562 161.21875 101.96875 160.3125 C 103.964844 159.394531 106.28125 159.734375 107.949219 161.144531 L 119.980469 171.4375 C 121.222656 172.429688 122.964844 172.597656 124.292969 171.761719 L 155.910156 152.511719 C 158.15625 151.097656 158.894531 148.199219 157.566406 145.785156 C 156.238281 143.378906 153.171875 142.460938 150.683594 143.792969 L 125.535156 158.066406 C 123.542969 159.226562 120.96875 158.984375 119.230469 157.488281 L 94.578125 136.992188 C 91.753906 134.671875 88.359375 133.425781 84.617188 133.425781 L 52.753906 133.425781 C 48.355469 133.425781 44.03125 135.335938 41.050781 138.742188 L 15.734375 167.207031 C 14.742188 168.367188 14.574219 170.117188 15.40625 171.519531 C 25.03125 187.125 39.394531 210.28125 41.882812 214.179688 C 41.964844 214.265625 42.050781 214.347656 42.136719 214.433594 C 43.875 216.015625 46.53125 216.257812 48.609375 215.015625 C 51.097656 213.433594 51.929688 210.121094 50.265625 207.464844 L 32.835938 179.828125 C 31.339844 177.511719 31.84375 174.429688 33.910156 172.605469 L 48.515625 159.828125 C 50.832031 157.835938 54.324219 158.003906 56.402344 160.324219 C 58.394531 162.644531 58.226562 166.132812 55.90625 168.210938 L 44.867188 177.835938 L 59.804688 201.476562 C 59.804688 201.476562 59.804688 201.558594 59.890625 201.558594 C 64.625 209.277344 62.292969 219.570312 54.660156 224.386719 C 51.171875 226.546875 47.113281 227.296875 43.367188 226.707031 L 43.367188 311.785156 C 43.453125 314.03125 45.277344 315.855469 47.597656 315.855469 C 47.597656 315.855469 47.597656 315.855469 47.679688 315.855469 L 51.582031 315.769531 C 53.902344 315.769531 55.738281 313.859375 55.738281 311.542969 L 55.738281 255.355469 C 55.738281 246.972656 62.535156 240.085938 70.929688 240.003906 L 71.183594 240.003906 C 79.648438 240.003906 86.535156 246.886719 86.535156 255.355469 L 86.535156 311.625 C 86.535156 313.945312 88.441406 315.78125 90.761719 315.855469 Z M 94.589844 327.136719 L 94.335938 327.136719 L 90.351562 327.050781 C 81.96875 326.964844 75.15625 319.996094 75.15625 311.699219 L 75.15625 255.425781 C 75.15625 253.109375 73.25 251.199219 70.929688 251.199219 L 70.84375 251.199219 C 68.527344 251.285156 66.777344 253.109375 66.777344 255.425781 L 66.777344 311.613281 C 66.777344 319.996094 59.976562 326.882812 51.667969 326.964844 L 47.765625 327.050781 C 47.679688 327.050781 47.597656 327.050781 47.511719 327.050781 C 39.128906 327.050781 32.246094 320.324219 32.078125 311.941406 L 32.078125 219.398438 C 29.914062 215.910156 23.777344 206.113281 5.929688 177.234375 C 5.929688 177.234375 5.929688 177.234375 5.929688 177.152344 C 2.605469 171.59375 3.1875 164.53125 7.425781 159.636719 L 32.65625 131.253906 C 37.800781 125.53125 45.109375 122.207031 52.65625 122.207031 L 84.53125 122.207031 C 90.75 122.207031 96.898438 124.453125 101.632812 128.429688 L 123.300781 146.523438 L 145.292969 134.070312 C 145.292969 134.070312 145.378906 134.070312 145.378906 133.984375 C 153.179688 129.757812 163.058594 132.574219 167.371094 140.375 C 171.527344 148.007812 169.113281 157.476562 161.816406 161.957031 L 130.113281 181.296875 C 124.628906 184.617188 117.660156 184.121094 112.683594 179.964844 L 109.855469 177.5625 L 109.855469 311.867188 C 109.941406 320.25 103.054688 327.136719 94.589844 327.136719 Z M 94.589844 327.136719 " fill-opacity="1" fill-rule="evenodd"/></g><g clip-path="url(#672f95df23)"><path fill="#d5fdb1" d="M 69.191406 59.050781 C 55.324219 59.050781 43.960938 70.34375 43.960938 84.28125 C 43.960938 98.148438 55.25 109.511719 69.191406 109.511719 C 83.054688 109.511719 94.421875 98.222656 94.421875 84.28125 C 94.421875 70.34375 83.128906 59.050781 69.191406 59.050781 Z M 69.191406 120.636719 C 49.105469 120.636719 32.835938 104.285156 32.835938 84.28125 C 32.835938 64.195312 49.1875 47.929688 69.191406 47.929688 C 89.277344 47.929688 105.542969 64.28125 105.542969 84.28125 C 105.542969 104.285156 89.277344 120.636719 69.191406 120.636719 Z M 69.191406 120.636719 " fill-opacity="1" fill-rule="evenodd"/></g><g clip-path="url(#0b14bb9776)"><path fill="#d5fdb1" d="M 366.742188 221.730469 L 281.667969 221.730469 C 278.597656 221.730469 276.109375 219.242188 276.109375 216.171875 C 276.109375 213.105469 278.597656 210.617188 281.667969 210.617188 L 361.09375 210.617188 L 361.09375 58.96875 L 142.140625 58.96875 L 142.140625 145.371094 C 142.140625 148.441406 139.652344 150.929688 136.585938 150.929688 C 133.515625 150.929688 131.027344 148.441406 131.027344 145.371094 L 131.027344 53.410156 C 131.027344 50.34375 133.515625 47.855469 136.585938 47.855469 L 366.742188 47.855469 C 369.8125 47.855469 372.300781 50.34375 372.300781 53.410156 L 372.300781 216.171875 C 372.300781 219.242188 369.8125 221.730469 366.742188 221.730469 Z M 366.742188 221.730469 " fill-opacity="1" fill-rule="evenodd"/></g><path fill="#d5fdb1" d="M 219.996094 221.730469 L 136.5 221.730469 C 133.433594 221.730469 130.945312 219.242188 130.945312 216.171875 L 130.945312 170.773438 C 130.945312 167.703125 133.433594 165.214844 136.5 165.214844 C 139.570312 165.214844 142.058594 167.703125 142.058594 170.773438 L 142.058594 210.617188 L 219.996094 210.617188 C 223.066406 210.617188 225.554688 213.105469 225.554688 216.171875 C 225.648438 219.242188 223.066406 221.730469 219.996094 221.730469 Z M 219.996094 221.730469 " fill-opacity="1" fill-rule="evenodd"/><path fill="#d5fdb1" d="M 298.105469 94.332031 L 179.078125 94.332031 C 176.007812 94.332031 173.519531 91.84375 173.519531 88.773438 C 173.519531 85.707031 176.007812 83.21875 179.078125 83.21875 L 298.09375 83.21875 C 301.160156 83.21875 303.648438 85.707031 303.648438 88.773438 C 303.660156 91.84375 301.171875 94.332031 298.105469 94.332031 Z M 298.105469 94.332031 " fill-opacity="1" fill-rule="evenodd"/><path fill="#d5fdb1" d="M 322.753906 127.28125 L 179.078125 127.28125 C 176.007812 127.28125 173.519531 124.792969 173.519531 121.722656 C 173.519531 118.65625 176.007812 116.167969 179.078125 116.167969 L 322.746094 116.167969 C 325.8125 116.167969 328.300781 118.65625 328.300781 121.722656 C 328.3125 124.792969 325.824219 127.28125 322.753906 127.28125 Z M 322.753906 127.28125 " fill-opacity="1" fill-rule="evenodd"/><path fill="#d5fdb1" d="M 322.753906 160.144531 L 179.078125 160.144531 C 176.007812 160.144531 173.519531 157.65625 173.519531 154.585938 C 173.519531 151.519531 176.007812 149.03125 179.078125 149.03125 L 322.746094 149.03125 C 325.8125 149.03125 328.300781 151.519531 328.300781 154.585938 C 328.3125 157.65625 325.824219 160.144531 322.753906 160.144531 Z M 322.753906 160.144531 " fill-opacity="1" fill-rule="evenodd"/><path fill="#d5fdb1" d="M 177.167969 232.601562 C 172.277344 232.601562 167.542969 234.339844 163.726562 237.578125 C 159.570312 241.140625 157.082031 246.210938 156.671875 251.601562 C 156.261719 257.082031 158.082031 262.386719 161.648438 266.539062 C 165.210938 270.695312 170.199219 273.183594 175.671875 273.59375 C 186.964844 274.425781 196.832031 265.875 197.582031 254.585938 C 198.414062 243.292969 189.863281 233.421875 178.570312 232.675781 C 178.167969 232.601562 177.675781 232.601562 177.167969 232.601562 Z M 177.253906 284.898438 C 176.503906 284.898438 175.753906 284.898438 175.007812 284.8125 C 166.539062 284.234375 158.820312 280.332031 153.265625 273.941406 C 147.707031 267.554688 144.96875 259.339844 145.632812 250.945312 C 146.210938 242.480469 150.113281 234.761719 156.503906 229.207031 C 162.890625 223.648438 171.105469 220.90625 179.5 221.570312 C 196.925781 222.816406 210.128906 238.007812 208.882812 255.4375 C 207.628906 272.109375 193.691406 284.898438 177.253906 284.898438 Z M 177.253906 284.898438 " fill-opacity="1" fill-rule="evenodd"/><g clip-path="url(#c36a72085c)"><path fill="#d5fdb1" d="M 195.101562 326.976562 L 134.929688 326.976562 C 133.433594 326.976562 132.019531 326.398438 130.945312 325.320312 C 129.867188 324.246094 129.289062 322.832031 129.289062 321.335938 C 129.375 308.558594 134.433594 296.515625 143.480469 287.554688 C 152.527344 278.675781 164.398438 273.773438 177.09375 273.773438 C 177.179688 273.773438 177.347656 273.773438 177.421875 273.773438 C 188.957031 273.859375 199.996094 278.085938 208.628906 285.644531 C 210.949219 287.722656 211.203125 291.203125 209.125 293.53125 C 207.050781 295.863281 203.570312 296.105469 201.238281 294.027344 C 194.597656 288.21875 186.128906 284.980469 177.253906 284.898438 C 177.167969 284.898438 177.082031 284.898438 177 284.898438 C 167.289062 284.898438 158.15625 288.628906 151.273438 295.523438 C 145.632812 301.082031 142.058594 308.144531 140.8125 315.863281 L 194.921875 315.863281 C 197.992188 315.863281 200.480469 318.351562 200.480469 321.421875 C 200.660156 324.488281 198.171875 326.976562 195.101562 326.976562 Z M 195.101562 326.976562 " fill-opacity="1" fill-rule="evenodd"/></g><path fill="#d5fdb1" d="M 324.496094 232.601562 C 313.203125 232.601562 304 241.816406 304 253.097656 C 304 264.378906 313.214844 273.59375 324.496094 273.59375 C 335.777344 273.59375 344.992188 264.378906 344.992188 253.097656 C 344.992188 241.816406 335.859375 232.601562 324.496094 232.601562 Z M 324.496094 284.898438 C 306.980469 284.898438 292.789062 270.707031 292.789062 253.191406 C 292.789062 235.679688 306.980469 221.488281 324.496094 221.488281 C 342.007812 221.488281 356.199219 235.679688 356.199219 253.191406 C 356.199219 270.621094 342.007812 284.898438 324.496094 284.898438 Z M 324.496094 284.898438 " fill-opacity="1" fill-rule="evenodd"/><g clip-path="url(#45a0710839)"><path fill="#d5fdb1" d="M 366.828125 326.976562 L 306.65625 326.976562 C 303.585938 326.976562 301.097656 324.488281 301.097656 321.421875 C 301.097656 318.351562 303.585938 315.863281 306.65625 315.863281 L 360.765625 315.863281 C 359.605469 308.230469 355.945312 301.09375 350.304688 295.523438 C 343.335938 288.640625 334.121094 284.898438 324.410156 284.898438 C 324.328125 284.898438 324.328125 284.898438 324.242188 284.898438 C 315.449219 284.980469 306.898438 288.21875 300.253906 294.027344 C 297.933594 296.019531 294.359375 295.769531 292.367188 293.449219 C 290.375 291.128906 290.628906 287.554688 292.949219 285.5625 C 301.667969 278.011719 312.78125 273.773438 324.242188 273.6875 C 324.328125 273.6875 324.328125 273.6875 324.410156 273.6875 C 337.191406 273.6875 349.144531 278.582031 358.191406 287.554688 C 367.324219 296.515625 372.300781 308.558594 372.382812 321.421875 C 372.382812 322.917969 371.804688 324.332031 370.730469 325.40625 C 369.726562 326.398438 368.230469 326.976562 366.828125 326.976562 Z M 366.828125 326.976562 " fill-opacity="1" fill-rule="evenodd"/></g><path fill="#d5fdb1" d="M 250.878906 202.644531 C 234.949219 202.644531 222 215.59375 222 231.523438 C 222 247.457031 234.949219 260.40625 250.878906 260.40625 C 266.808594 260.40625 279.757812 247.457031 279.757812 231.523438 C 279.757812 215.59375 266.808594 202.644531 250.878906 202.644531 Z M 250.878906 271.527344 C 228.800781 271.527344 210.875 253.605469 210.875 231.523438 C 210.875 209.445312 228.800781 191.523438 250.878906 191.523438 C 272.957031 191.523438 290.882812 209.445312 290.882812 231.523438 C 290.882812 253.519531 272.957031 271.527344 250.878906 271.527344 Z M 250.878906 271.527344 " fill-opacity="1" fill-rule="evenodd"/><g clip-path="url(#c7f316bc6c)"><path fill="#d5fdb1" d="M 200.996094 315.855469 L 300.59375 315.855469 C 297.441406 291.117188 276.195312 271.867188 250.710938 271.867188 C 250.542969 271.867188 250.382812 271.867188 250.214844 271.867188 C 224.730469 272.191406 204.066406 291.117188 200.996094 315.855469 Z M 306.65625 326.976562 L 195.101562 326.976562 C 193.605469 326.976562 192.191406 326.398438 191.117188 325.320312 C 190.042969 324.246094 189.460938 322.832031 189.535156 321.335938 C 189.703125 305.234375 196.09375 290.042969 207.460938 278.675781 C 218.824219 267.308594 234.019531 260.910156 250.121094 260.667969 C 250.371094 260.667969 250.53125 260.667969 250.785156 260.667969 C 284.3125 260.667969 311.789062 287.722656 312.285156 321.335938 C 312.285156 322.832031 311.707031 324.246094 310.703125 325.320312 C 309.554688 326.398438 308.140625 326.976562 306.65625 326.976562 Z M 306.65625 326.976562 " fill-opacity="1" fill-rule="evenodd"/></g></svg>