<svg xmlns="http://www.w3.org/2000/svg" xmlns:xlink="http://www.w3.org/1999/xlink" width="500" zoomAndPan="magnify" viewBox="0 0 375 374.999991" height="500" preserveAspectRatio="xMidYMid meet" version="1.0"><defs><clipPath id="0f1ec8ff3b"><path d="M 7 45 L 368.726562 45 L 368.726562 334.714844 L 7 334.714844 Z M 7 45 " clip-rule="nonzero"/></clipPath></defs><g clip-path="url(#0f1ec8ff3b)"><path fill="#d5fdb1" d="M 196.230469 136.210938 C 216.304688 136.210938 232.574219 152.480469 232.574219 172.578125 C 232.574219 192.652344 216.304688 208.921875 196.230469 208.921875 C 176.152344 208.921875 159.886719 192.652344 159.886719 172.578125 C 159.886719 152.488281 176.152344 136.210938 196.230469 136.210938 Z M 214.777344 154.03125 C 204.542969 143.796875 187.9375 143.796875 177.699219 154.03125 C 167.441406 164.265625 167.441406 180.867188 177.699219 191.109375 C 187.929688 201.339844 204.511719 201.339844 214.777344 191.109375 C 225.015625 180.867188 225.015625 164.273438 214.777344 154.03125 Z M 191.347656 101.503906 L 201.121094 101.503906 C 206.78125 101.503906 211.398438 106.144531 211.398438 111.78125 L 211.484375 115.722656 C 216.414062 117.023438 221.257812 119.058594 225.65625 121.601562 L 225.8125 121.578125 L 225.8125 121.554688 C 228.8125 118.550781 230.945312 115.878906 235.761719 115.878906 C 238.390625 115.878906 241.027344 116.875 243.015625 118.863281 L 250.308594 126.203125 C 253.980469 130.492188 253.78125 136.460938 249.933594 140.304688 L 247.1875 143.066406 C 247.164062 143.066406 247.1875 143.113281 247.210938 143.152344 C 249.777344 147.574219 251.789062 152.394531 253.09375 157.324219 C 253.273438 157.960938 260.347656 155.792969 264.636719 160.816406 C 266.296875 162.648438 267.289062 165.058594 267.289062 167.671875 L 267.289062 177.46875 C 267.289062 183.128906 262.671875 187.722656 257.03125 187.722656 L 257.03125 187.699219 L 253.226562 187.699219 L 253.226562 187.722656 L 253.09375 187.808594 C 251.789062 192.761719 249.777344 197.558594 247.210938 202.003906 C 247.1875 202.050781 247.164062 202.066406 247.1875 202.089844 L 250.308594 205.234375 C 253.980469 209.546875 253.804688 215.464844 249.933594 219.332031 L 249.933594 219.355469 L 243.015625 226.273438 C 239.039062 230.277344 232.535156 230.277344 228.511719 226.25 L 228.511719 226.273438 L 225.75 223.515625 C 225.726562 223.515625 225.703125 223.539062 225.664062 223.5625 C 221.265625 226.105469 216.375 228.140625 211.492188 229.441406 C 210.828125 229.597656 212.949219 236.054688 208.347656 240.625 C 206.492188 242.480469 203.925781 243.636719 201.121094 243.636719 L 191.347656 243.636719 C 185.683594 243.636719 181.066406 239.019531 181.066406 233.355469 L 180.980469 229.441406 C 176.074219 228.140625 171.210938 226.082031 166.8125 223.5625 C 166.234375 223.226562 163.160156 229.285156 156.710938 229.285156 C 154.082031 229.285156 151.46875 228.273438 149.457031 226.257812 L 149.457031 226.28125 L 142.539062 219.363281 C 138.539062 215.363281 138.539062 208.84375 142.539062 204.84375 L 145.300781 202.105469 C 145.300781 202.082031 145.277344 202.058594 145.253906 202.019531 C 142.710938 197.597656 140.675781 192.730469 139.375 187.824219 C 139.195312 187.183594 132.742188 189.285156 128.1875 184.730469 C 126.332031 182.871094 125.179688 180.304688 125.179688 177.476562 L 125.179688 167.679688 C 125.179688 162.015625 129.796875 157.421875 135.433594 157.421875 L 139.375 157.339844 C 140.675781 152.386719 142.6875 147.589844 145.253906 143.167969 L 145.230469 142.988281 L 145.230469 143.011719 C 142.203125 139.984375 139.550781 137.878906 139.550781 133.058594 L 139.527344 133.058594 C 139.527344 130.429688 140.527344 127.816406 142.53125 125.804688 L 142.53125 125.78125 L 149.824219 118.527344 C 154.113281 114.839844 160.101562 115.011719 163.949219 118.863281 L 166.710938 121.625 C 166.734375 121.625 166.757812 121.625 166.796875 121.601562 C 171.21875 119.035156 176.058594 117.023438 180.964844 115.722656 L 181.050781 115.589844 L 181.074219 115.589844 L 181.074219 111.78125 L 181.050781 111.78125 C 181.058594 106.121094 185.683594 101.503906 191.347656 101.503906 Z M 201.113281 111.648438 L 191.253906 111.695312 C 191.230469 111.71875 191.207031 111.742188 191.207031 111.78125 L 191.183594 111.78125 L 191.183594 115.589844 L 191.207031 115.589844 C 191.207031 120.253906 188.085938 124.300781 183.601562 125.492188 C 179.46875 126.601562 175.53125 128.238281 171.863281 130.335938 C 167.839844 132.675781 162.753906 132.015625 159.488281 128.722656 L 156.632812 126.023438 L 149.691406 132.964844 L 149.691406 132.941406 C 149.667969 132.964844 149.667969 133.011719 149.667969 133.050781 L 149.644531 133.050781 L 152.382812 135.8125 L 152.359375 135.835938 C 155.671875 139.125 156.335938 144.171875 153.996094 148.214844 C 151.875 151.863281 150.238281 155.816406 149.128906 159.925781 C 147.9375 164.433594 143.890625 167.554688 139.226562 167.554688 L 135.332031 167.578125 L 135.332031 177.546875 C 135.777344 177.992188 141.238281 176.4375 145.480469 179.691406 C 149.417969 182.714844 149.035156 186.367188 151.070312 190.96875 L 153.988281 196.917969 C 156.328125 200.964844 155.648438 206.027344 152.375 209.320312 L 149.652344 212.105469 L 156.59375 219.117188 C 157.171875 219.511719 159.824219 214.234375 165.390625 213.5 C 170.296875 212.859375 172.597656 215.691406 177.308594 217.523438 L 183.585938 219.644531 C 188.070312 220.863281 191.191406 224.886719 191.191406 229.550781 C 191.191406 230.285156 191.035156 233.488281 191.324219 233.488281 L 201.207031 233.441406 C 201.601562 233.042969 200.097656 227.539062 203.351562 223.320312 C 206.375 219.363281 210.027344 219.761719 214.628906 217.726562 L 220.578125 214.808594 C 224.625 212.46875 229.6875 213.148438 232.957031 216.425781 L 235.652344 219.125 L 235.832031 219.125 L 242.75 212.207031 C 243.148438 211.628906 237.871094 208.976562 237.136719 203.40625 C 236.847656 201.214844 237.269531 198.960938 238.4375 196.925781 C 240.558594 193.277344 242.199219 189.324219 243.304688 185.210938 C 244.5 180.703125 248.546875 177.609375 253.210938 177.609375 L 257.015625 177.609375 L 257.148438 177.476562 L 257.101562 167.59375 C 256.65625 167.171875 251.199219 168.703125 246.980469 165.449219 C 245.207031 164.101562 243.90625 162.195312 243.304688 159.941406 C 242.199219 155.832031 240.558594 151.871094 238.4375 148.226562 C 236.097656 144.179688 236.777344 139.117188 240.054688 135.828125 L 242.773438 132.996094 L 235.746094 126.007812 L 232.964844 128.730469 C 229.671875 132.023438 224.625 132.683594 220.585938 130.34375 C 216.875 128.222656 213.003906 126.609375 208.847656 125.5 C 204.363281 124.308594 201.246094 120.261719 201.246094 115.597656 L 201.199219 111.703125 C 201.183594 111.671875 201.160156 111.648438 201.113281 111.648438 Z M 156.570312 66.265625 C 156.570312 52.140625 128.625 53.398438 128.671875 63.855469 L 128.25 102.394531 C 128.046875 110.019531 127.832031 118.550781 127.699219 134.339844 C 127.675781 137.097656 125.421875 139.335938 122.660156 139.335938 L 102.800781 139.335938 C 102.738281 166.511719 115.5625 224.917969 146.113281 238.800781 L 146.113281 238.824219 C 147.835938 239.621094 149.027344 241.34375 149.050781 243.355469 L 150.136719 324.824219 L 264.769531 323.257812 L 264.683594 232.8125 C 264.597656 231.882812 264.769531 230.929688 265.238281 230.050781 C 277.128906 207.167969 275.585938 159.195312 274.480469 124.175781 C 274.167969 114.535156 273.878906 105.652344 273.878906 97.929688 C 273.878906 87.472656 267.625 80.046875 258.429688 78.566406 C 255.933594 78.167969 253.523438 78.277344 251.417969 78.878906 C 248.851562 79.609375 246.816406 81.132812 246.042969 83.324219 L 246.042969 104.085938 C 246.042969 106.894531 243.789062 109.171875 240.980469 109.171875 C 238.171875 109.171875 235.917969 106.894531 235.917969 104.085938 L 235.917969 82.792969 C 235.699219 80.828125 235.476562 76.9375 235.304688 73.621094 C 235.195312 71.789062 235.101562 70.152344 234.992188 68.933594 L 235.015625 68.933594 C 234.351562 58.742188 220.132812 55.246094 211.890625 58.28125 C 208.332031 59.582031 205.832031 62.21875 205.832031 66.28125 L 205.832031 89.5625 C 205.832031 92.371094 203.574219 94.625 200.769531 94.625 C 197.960938 94.625 195.707031 92.371094 195.707031 89.5625 L 195.707031 65.882812 C 195.574219 58.789062 187.65625 55.738281 181.199219 55.738281 L 181.199219 55.761719 C 174.632812 55.761719 166.695312 58.726562 166.695312 66.257812 L 166.695312 89.539062 C 166.695312 92.347656 164.417969 94.601562 161.632812 94.601562 C 158.824219 94.601562 156.570312 92.347656 156.570312 89.539062 Z M 200.917969 53.328125 C 213.519531 41.058594 243.914062 47.363281 245.089844 68.136719 L 245.089844 68.113281 C 245.113281 68.488281 245.175781 69.355469 245.246094 70.4375 C 249.667969 68.292969 254.949219 67.742188 260.019531 68.558594 C 263.464844 69.136719 266.960938 70.332031 270.164062 72.234375 L 350.339844 72.234375 C 360.332031 72.234375 368.511719 80.390625 368.511719 90.40625 L 368.511719 121.179688 C 368.511719 131.195312 360.332031 139.351562 350.339844 139.351562 L 285.015625 139.351562 C 285.898438 173.15625 285.570312 211.605469 274.757812 233.621094 L 274.867188 328.21875 C 274.867188 331.003906 272.660156 333.234375 269.894531 333.28125 L 145.207031 334.957031 C 142.421875 335.003906 140.144531 332.765625 140.097656 329.980469 L 138.992188 246.570312 C 106.382812 228.816406 92.695312 170.160156 92.695312 139.34375 L 68.992188 139.34375 C 68.042969 139.34375 67.160156 139.082031 66.386719 138.636719 L 10.1875 110.292969 C 6.511719 108.460938 6.476562 103.148438 10.1875 101.269531 L 66.386719 72.949219 C 67.160156 72.484375 68.050781 72.21875 68.992188 72.21875 L 118.558594 72.21875 C 118.582031 69.675781 118.558594 66.890625 118.558594 63.839844 C 118.496094 44.609375 149.261719 40.078125 161.648438 53.117188 C 166.515625 48.007812 174.140625 45.597656 181.191406 45.597656 L 181.191406 45.621094 C 188.40625 45.636719 196.035156 48.070312 200.917969 53.328125 Z M 280.132812 82.378906 C 282.519531 86.582031 283.976562 91.753906 283.976562 97.921875 C 283.976562 106.457031 284.421875 118.839844 284.726562 129.230469 L 291.027344 129.230469 L 291.027344 82.378906 Z M 98.933594 129.230469 L 117.636719 129.230469 C 117.878906 106.925781 118.371094 102.082031 118.519531 82.378906 L 74.039062 82.378906 L 74.039062 129.230469 L 98.488281 129.230469 C 98.644531 129.230469 98.800781 129.230469 98.933594 129.230469 Z M 333.300781 82.378906 L 333.300781 129.230469 L 350.339844 129.230469 C 354.742188 129.230469 358.367188 125.601562 358.367188 121.179688 L 358.367188 90.40625 C 358.367188 86.007812 354.742188 82.378906 350.339844 82.378906 Z M 323.152344 129.230469 L 323.152344 82.378906 L 301.160156 82.378906 L 301.160156 129.230469 Z M 63.9375 126.085938 L 63.9375 85.523438 L 23.703125 105.792969 Z M 63.9375 126.085938 " fill-opacity="1" fill-rule="nonzero"/></g></svg>