<svg xmlns="http://www.w3.org/2000/svg" xmlns:xlink="http://www.w3.org/1999/xlink" width="500" zoomAndPan="magnify" viewBox="0 0 375 374.999991" height="500" preserveAspectRatio="xMidYMid meet" version="1.0"><defs><clipPath id="783ab01bb3"><path d="M 7 49.949219 L 368 49.949219 L 368 325.199219 L 7 325.199219 Z M 7 49.949219 " clip-rule="nonzero"/></clipPath></defs><path fill="#d5fdb1" d="M 270.808594 196.175781 C 249.546875 196.175781 232.1875 178.820312 232.1875 157.558594 C 232.1875 136.296875 249.546875 118.941406 270.808594 118.941406 C 292.066406 118.941406 309.425781 136.296875 309.425781 157.558594 C 309.425781 178.820312 292.066406 196.175781 270.808594 196.175781 Z M 270.808594 127.617188 C 254.316406 127.617188 240.867188 141.070312 240.867188 157.558594 C 240.867188 174.046875 254.316406 187.496094 270.808594 187.496094 C 287.296875 187.496094 300.746094 174.046875 300.746094 157.558594 C 300.746094 141.070312 287.296875 127.617188 270.808594 127.617188 Z M 270.808594 127.617188 " fill-opacity="1" fill-rule="nonzero"/><path fill="#d5fdb1" d="M 341.535156 251.28125 L 312.460938 199.214844 C 315.5 198.34375 318.535156 197.042969 320.707031 194.007812 C 323.308594 190.101562 323.308594 185.328125 322.875 180.988281 C 322.875 178.386719 322.441406 176.214844 322.875 174.480469 C 323.308594 173.179688 325.046875 171.007812 326.347656 169.273438 C 328.949219 165.800781 332.421875 162.332031 332.421875 157.125 C 332.421875 151.917969 329.382812 148.445312 326.347656 144.972656 C 325.046875 143.238281 323.308594 141.503906 322.875 139.769531 C 322.441406 138.03125 322.441406 135.863281 322.875 133.257812 C 323.308594 128.921875 323.308594 124.148438 320.707031 120.242188 C 317.667969 116.335938 313.328125 115.035156 308.992188 114.167969 C 306.820312 113.734375 304.21875 112.867188 302.917969 111.996094 C 301.613281 111.128906 300.3125 108.960938 299.011719 106.789062 C 296.839844 103.320312 294.238281 98.980469 289.464844 97.679688 C 285.125 96.375 280.785156 98.113281 276.882812 99.414062 C 274.710938 100.28125 272.109375 101.148438 270.371094 101.148438 C 268.636719 101.148438 266.46875 100.28125 263.863281 99.414062 C 259.960938 97.679688 255.621094 95.941406 251.28125 97.679688 C 246.507812 98.980469 243.90625 103.320312 241.734375 106.789062 C 240.433594 108.960938 239.132812 110.695312 237.828125 111.996094 C 236.527344 112.867188 233.925781 113.734375 231.753906 114.167969 C 227.417969 115.035156 223.078125 116.335938 220.039062 120.242188 C 217.4375 124.148438 217.4375 128.921875 217.871094 133.257812 C 217.871094 135.863281 218.304688 138.03125 217.871094 139.769531 C 217.4375 141.070312 215.699219 143.238281 214.398438 144.972656 C 211.796875 148.445312 208.324219 151.917969 208.324219 157.125 C 208.324219 161.898438 211.363281 165.800781 214.398438 169.273438 C 215.699219 171.007812 217.4375 172.746094 217.871094 174.480469 C 218.304688 176.214844 218.304688 178.386719 217.871094 180.988281 C 217.4375 185.328125 217.4375 190.101562 220.039062 194.007812 C 222.644531 197.476562 226.546875 198.777344 230.453125 199.648438 L 201.816406 251.28125 C 200.949219 252.582031 200.949219 254.320312 201.816406 255.621094 C 202.683594 256.921875 203.984375 257.789062 205.71875 257.789062 L 224.378906 256.488281 L 233.058594 272.976562 C 233.925781 274.277344 235.226562 275.148438 236.960938 275.148438 C 238.699219 275.148438 240 274.277344 240.867188 272.976562 L 272.109375 217.871094 L 302.480469 272.542969 C 303.351562 273.84375 304.652344 274.714844 306.386719 274.714844 C 308.121094 274.714844 309.425781 273.84375 310.292969 272.542969 L 318.96875 256.054688 L 337.628906 257.355469 C 339.363281 257.355469 340.664062 256.488281 341.535156 255.1875 C 342.402344 254.320312 342.402344 252.582031 341.535156 251.28125 Z M 226.980469 181.421875 C 226.980469 178.386719 227.417969 174.914062 226.546875 171.875 C 225.679688 168.839844 223.511719 166.234375 221.339844 164.066406 C 219.605469 161.898438 217.4375 159.292969 217.4375 157.558594 C 217.4375 155.820312 219.605469 153.21875 221.339844 151.050781 C 223.511719 148.445312 225.679688 146.277344 226.546875 143.238281 C 227.417969 140.203125 227.417969 136.730469 226.980469 133.691406 C 226.980469 130.65625 226.546875 127.617188 227.417969 126.316406 C 228.285156 125.015625 231.320312 124.148438 233.925781 123.714844 C 236.960938 122.84375 240.433594 121.976562 243.035156 120.242188 C 245.640625 118.507812 247.375 115.46875 249.113281 112.867188 C 250.847656 110.261719 252.148438 107.660156 253.882812 107.222656 C 254.316406 107.222656 254.316406 107.222656 254.753906 107.222656 C 256.488281 107.222656 258.65625 108.09375 260.828125 108.960938 C 263.863281 110.261719 266.902344 111.5625 270.371094 111.5625 C 273.84375 111.5625 276.882812 110.261719 279.917969 108.960938 C 282.523438 108.09375 285.125 106.789062 286.863281 107.222656 C 288.597656 107.660156 289.898438 110.261719 291.632812 112.867188 C 293.371094 115.46875 295.105469 118.507812 297.710938 120.242188 C 300.3125 121.976562 303.785156 122.84375 306.820312 123.714844 C 309.859375 124.582031 312.460938 125.015625 313.328125 126.316406 C 314.199219 127.617188 314.199219 130.65625 313.761719 133.691406 C 313.761719 136.730469 313.328125 140.203125 314.199219 143.238281 C 315.066406 146.277344 317.234375 148.878906 319.40625 151.050781 C 321.140625 153.21875 323.308594 155.820312 323.308594 157.558594 C 323.308594 159.292969 321.140625 161.898438 319.40625 164.066406 C 317.234375 166.671875 315.066406 168.839844 314.199219 171.875 C 313.328125 174.914062 313.328125 178.386719 313.761719 181.421875 C 313.761719 184.460938 314.199219 187.496094 313.328125 188.800781 C 312.460938 190.101562 309.425781 190.96875 306.820312 191.402344 C 303.785156 192.269531 300.3125 193.136719 297.710938 194.875 C 295.105469 196.609375 293.371094 199.648438 291.632812 202.25 C 289.898438 204.855469 288.597656 207.457031 286.863281 207.890625 C 285.558594 208.324219 282.523438 207.023438 279.917969 206.15625 C 277.75 205.289062 275.144531 204.417969 272.976562 203.984375 C 272.109375 203.984375 271.242188 203.550781 270.371094 203.550781 C 266.902344 203.550781 263.863281 204.855469 260.828125 206.15625 C 258.222656 207.023438 255.621094 208.324219 253.882812 207.890625 C 252.148438 207.457031 250.847656 204.855469 249.113281 202.25 C 247.375 199.648438 245.640625 196.609375 243.035156 194.875 C 240.433594 193.136719 236.960938 192.269531 233.925781 191.402344 C 230.886719 190.535156 228.285156 190.101562 227.414062 188.800781 C 226.546875 187.496094 226.980469 184.460938 226.980469 181.421875 Z M 237.828125 261.695312 L 231.320312 249.980469 C 230.453125 248.679688 228.71875 247.8125 227.417969 247.8125 L 213.964844 248.246094 L 239.132812 202.683594 C 240 203.550781 241.300781 205.289062 242.167969 207.023438 C 244.339844 210.496094 246.941406 214.832031 251.714844 216.136719 C 253.015625 216.570312 253.882812 216.570312 255.1875 216.570312 C 258.222656 216.570312 261.695312 215.269531 264.296875 213.964844 Z M 316.800781 247.375 C 315.066406 247.375 313.328125 248.246094 312.894531 249.546875 L 306.386719 261.261719 L 281.21875 215.703125 C 283.824219 216.570312 286.863281 217.003906 289.898438 216.136719 C 294.671875 214.832031 297.273438 210.496094 299.445312 207.023438 C 300.746094 204.855469 302.046875 203.117188 303.351562 201.816406 C 303.785156 201.382812 304.21875 201.382812 304.652344 201.382812 L 330.6875 248.246094 Z M 316.800781 247.375 " fill-opacity="1" fill-rule="nonzero"/><g clip-path="url(#783ab01bb3)"><path fill="#d5fdb1" d="M 348.910156 325.046875 L 26.082031 325.046875 C 15.667969 325.046875 7.425781 316.800781 7.425781 306.386719 L 7.425781 68.605469 C 7.425781 58.191406 15.667969 49.949219 26.082031 49.949219 L 348.910156 49.949219 C 359.324219 49.949219 367.566406 58.191406 367.566406 68.605469 L 367.566406 306.386719 C 367.566406 316.367188 358.890625 325.046875 348.910156 325.046875 Z M 26.082031 58.625 C 20.441406 58.625 16.101562 62.964844 16.101562 68.605469 L 16.101562 306.386719 C 16.101562 312.027344 20.441406 316.367188 26.082031 316.367188 L 348.910156 316.367188 C 354.550781 316.367188 358.890625 312.027344 358.890625 306.386719 L 358.890625 68.605469 C 358.890625 62.964844 354.550781 58.625 348.910156 58.625 Z M 26.082031 58.625 " fill-opacity="1" fill-rule="nonzero"/></g><path fill="#d5fdb1" d="M 333.722656 306.820312 L 42.570312 306.820312 C 33.460938 306.820312 26.082031 299.445312 26.082031 290.332031 L 26.082031 84.660156 C 26.082031 75.550781 33.460938 68.171875 42.570312 68.171875 L 333.722656 68.171875 C 342.835938 68.171875 350.210938 75.550781 350.210938 84.660156 L 350.210938 290.332031 C 350.210938 299.445312 342.835938 306.820312 333.722656 306.820312 Z M 42.570312 72.511719 C 36.0625 72.511719 30.421875 78.152344 30.421875 84.660156 L 30.421875 290.332031 C 30.421875 296.84375 36.0625 302.484375 42.570312 302.484375 L 333.722656 302.484375 C 340.230469 302.484375 345.871094 296.84375 345.871094 290.332031 L 345.871094 84.660156 C 345.871094 78.152344 340.230469 72.511719 333.722656 72.511719 Z M 42.570312 72.511719 " fill-opacity="1" fill-rule="nonzero"/><path fill="#d5fdb1" d="M 198.34375 114.601562 L 57.757812 114.601562 C 55.15625 114.601562 53.417969 112.867188 53.417969 110.261719 C 53.417969 107.660156 55.15625 105.921875 57.757812 105.921875 L 197.910156 105.921875 C 200.515625 105.921875 202.25 107.660156 202.25 110.261719 C 202.25 112.867188 200.515625 114.601562 198.34375 114.601562 Z M 198.34375 114.601562 " fill-opacity="1" fill-rule="nonzero"/><path fill="#d5fdb1" d="M 182.289062 223.078125 L 57.757812 223.078125 C 55.15625 223.078125 53.417969 221.34375 53.417969 218.738281 C 53.417969 216.136719 55.15625 214.398438 57.757812 214.398438 L 182.289062 214.398438 C 184.894531 214.398438 186.628906 216.136719 186.628906 218.738281 C 186.628906 221.34375 184.894531 223.078125 182.289062 223.078125 Z M 182.289062 223.078125 " fill-opacity="1" fill-rule="nonzero"/><path fill="#d5fdb1" d="M 182.289062 173.179688 L 57.757812 173.179688 C 55.15625 173.179688 53.417969 171.441406 53.417969 168.839844 C 53.417969 166.234375 55.15625 164.5 57.757812 164.5 L 182.289062 164.5 C 184.894531 164.5 186.628906 166.234375 186.628906 168.839844 C 186.628906 171.441406 184.894531 173.179688 182.289062 173.179688 Z M 182.289062 173.179688 " fill-opacity="1" fill-rule="nonzero"/><path fill="#d5fdb1" d="M 123.710938 256.054688 L 57.757812 256.054688 C 55.15625 256.054688 53.417969 254.320312 53.417969 251.714844 C 53.417969 249.113281 55.15625 247.375 57.757812 247.375 L 123.710938 247.375 C 126.316406 247.375 128.050781 249.113281 128.050781 251.714844 C 128.050781 254.320312 126.316406 256.054688 123.710938 256.054688 Z M 123.710938 256.054688 " fill-opacity="1" fill-rule="nonzero"/></svg>