<svg xmlns="http://www.w3.org/2000/svg" xmlns:xlink="http://www.w3.org/1999/xlink" width="500" zoomAndPan="magnify" viewBox="0 0 375 374.999991" height="500" preserveAspectRatio="xMidYMid meet" version="1.0"><defs><clipPath id="f8852c3f6a"><path d="M 21.296875 27.558594 L 364.796875 27.558594 L 364.796875 337.308594 L 21.296875 337.308594 Z M 21.296875 27.558594 " clip-rule="nonzero"/></clipPath></defs><g clip-path="url(#f8852c3f6a)"><path fill="#d5fdb1" d="M 346.882812 27.5625 L 39.125 27.5625 C 29.335938 27.5625 21.371094 35.527344 21.371094 45.316406 L 21.371094 276.980469 C 21.371094 280.246094 24.023438 282.898438 27.289062 282.898438 L 123.617188 282.898438 L 121.664062 304.523438 C 120.90625 312.960938 123.746094 321.386719 129.460938 327.644531 C 135.179688 333.898438 143.320312 337.488281 151.792969 337.488281 C 160.265625 337.488281 168.40625 333.898438 174.121094 327.644531 C 179.839844 321.386719 182.679688 312.960938 181.917969 304.523438 L 179.96875 282.898438 L 216.191406 282.898438 L 214.882812 304.054688 C 214.117188 312.707031 217.019531 321.320312 222.847656 327.6875 C 228.550781 333.917969 236.628906 337.488281 245.007812 337.488281 C 253.390625 337.488281 261.472656 333.914062 267.175781 327.683594 C 273 321.320312 275.902344 312.707031 275.148438 304.214844 L 273.832031 282.898438 L 358.71875 282.898438 C 361.984375 282.898438 364.636719 280.246094 364.636719 276.980469 L 364.636719 45.316406 C 364.636719 35.527344 356.671875 27.5625 346.882812 27.5625 Z M 165.382812 319.660156 C 158.320312 327.390625 145.265625 327.390625 138.199219 319.660156 C 134.671875 315.796875 132.984375 310.800781 133.457031 305.585938 L 142.671875 203.410156 C 142.914062 200.71875 141.300781 198.207031 138.757812 197.300781 C 123.171875 191.769531 112.699219 176.976562 112.699219 160.492188 C 112.699219 156.621094 113.265625 152.816406 114.375 149.175781 L 123.09375 164.3125 C 124.152344 166.148438 126.109375 167.277344 128.222656 167.277344 L 175.363281 167.277344 C 177.476562 167.277344 179.433594 166.148438 180.492188 164.3125 L 189.210938 149.175781 C 190.316406 152.816406 190.886719 156.621094 190.886719 160.492188 C 190.886719 176.976562 180.414062 191.769531 164.828125 197.300781 C 162.28125 198.207031 160.667969 200.71875 160.910156 203.410156 L 170.128906 305.585938 C 170.597656 310.800781 168.914062 315.796875 165.382812 319.660156 Z M 258.445312 319.695312 C 251.40625 327.375 238.613281 327.382812 231.578125 319.695312 C 227.988281 315.773438 226.199219 310.453125 226.683594 304.941406 L 229.929688 252.425781 L 260.09375 252.425781 L 263.34375 305.101562 C 263.820312 310.453125 262.035156 315.769531 258.445312 319.695312 Z M 216.710938 240.589844 L 216.710938 231.625 L 273.308594 231.625 L 273.308594 240.589844 Z M 228.777344 135.691406 L 233.613281 104.308594 L 256.40625 104.308594 L 261.242188 135.691406 Z M 249.863281 147.527344 L 249.863281 219.789062 L 240.15625 219.789062 L 240.15625 147.527344 Z M 352.800781 271.0625 L 273.101562 271.0625 L 271.949219 252.425781 L 279.226562 252.425781 C 282.496094 252.425781 285.144531 249.777344 285.144531 246.507812 L 285.144531 225.707031 C 285.144531 222.4375 282.496094 219.789062 279.226562 219.789062 L 261.699219 219.789062 L 261.699219 147.527344 L 268.140625 147.527344 C 269.871094 147.527344 271.507812 146.773438 272.636719 145.460938 C 273.761719 144.152344 274.253906 142.414062 273.992188 140.707031 L 267.332031 97.488281 C 266.886719 94.601562 264.40625 92.472656 261.484375 92.472656 L 228.535156 92.472656 C 225.613281 92.472656 223.128906 94.601562 222.683594 97.488281 L 216.027344 140.707031 C 215.765625 142.414062 216.257812 144.152344 217.382812 145.460938 C 218.507812 146.773438 220.148438 147.527344 221.875 147.527344 L 228.320312 147.527344 L 228.320312 219.789062 L 210.792969 219.789062 C 207.523438 219.789062 204.875 222.4375 204.875 225.707031 L 204.875 246.507812 C 204.875 249.777344 207.523438 252.425781 210.792969 252.425781 L 218.070312 252.425781 L 216.921875 271.0625 L 178.902344 271.0625 L 173.097656 206.703125 C 190.988281 198.445312 202.722656 180.417969 202.722656 160.492188 C 202.722656 150.753906 199.953125 141.3125 194.71875 133.1875 C 193.601562 131.453125 191.6875 130.375 189.597656 130.476562 C 187.535156 130.527344 185.644531 131.648438 184.613281 133.441406 L 171.941406 155.441406 L 131.644531 155.441406 L 118.96875 133.441406 C 117.9375 131.648438 116.050781 130.527344 113.988281 130.476562 C 111.914062 130.363281 109.980469 131.453125 108.863281 133.1875 C 103.628906 141.3125 100.863281 150.753906 100.863281 160.492188 C 100.863281 180.417969 112.59375 198.445312 130.488281 206.703125 L 124.683594 271.0625 L 33.207031 271.0625 L 33.207031 79.984375 L 352.800781 79.984375 Z M 352.800781 68.144531 L 33.207031 68.144531 L 33.207031 45.316406 C 33.207031 42.054688 35.863281 39.398438 39.125 39.398438 L 346.882812 39.398438 C 350.144531 39.398438 352.800781 42.054688 352.800781 45.316406 Z M 352.800781 68.144531 " fill-opacity="1" fill-rule="nonzero"/></g><path fill="#d5fdb1" d="M 338.425781 47.855469 L 318.136719 47.855469 C 314.867188 47.855469 312.21875 50.503906 312.21875 53.773438 C 312.21875 57.039062 314.867188 59.691406 318.136719 59.691406 L 338.425781 59.691406 C 341.695312 59.691406 344.34375 57.039062 344.34375 53.773438 C 344.34375 50.503906 341.695312 47.855469 338.425781 47.855469 Z M 338.425781 47.855469 " fill-opacity="1" fill-rule="nonzero"/><path fill="#d5fdb1" d="M 297.84375 47.855469 L 277.550781 47.855469 C 274.285156 47.855469 271.632812 50.503906 271.632812 53.773438 C 271.632812 57.039062 274.285156 59.691406 277.550781 59.691406 L 297.84375 59.691406 C 301.113281 59.691406 303.761719 57.039062 303.761719 53.773438 C 303.761719 50.503906 301.113281 47.855469 297.84375 47.855469 Z M 297.84375 47.855469 " fill-opacity="1" fill-rule="nonzero"/><path fill="#d5fdb1" d="M 257.257812 47.855469 L 236.96875 47.855469 C 233.703125 47.855469 231.050781 50.503906 231.050781 53.773438 C 231.050781 57.039062 233.703125 59.691406 236.96875 59.691406 L 257.257812 59.691406 C 260.527344 59.691406 263.175781 57.039062 263.175781 53.773438 C 263.175781 50.503906 260.527344 47.855469 257.257812 47.855469 Z M 257.257812 47.855469 " fill-opacity="1" fill-rule="nonzero"/><path fill="#d5fdb1" d="M 134.195312 145.125 C 135.253906 146.957031 137.207031 148.085938 139.324219 148.085938 L 164.261719 148.085938 C 166.378906 148.085938 168.332031 146.957031 169.386719 145.125 L 181.859375 123.527344 C 182.914062 121.695312 182.914062 119.441406 181.859375 117.609375 L 169.386719 96.011719 C 168.332031 94.179688 166.378906 93.054688 164.261719 93.054688 L 139.324219 93.054688 C 137.207031 93.054688 135.253906 94.179688 134.195312 96.011719 L 121.726562 117.609375 C 120.671875 119.441406 120.671875 121.695312 121.726562 123.527344 Z M 142.738281 104.890625 L 160.847656 104.890625 L 169.898438 120.566406 L 160.847656 136.25 L 142.738281 136.25 L 133.6875 120.566406 Z M 142.738281 104.890625 " fill-opacity="1" fill-rule="nonzero"/><path fill="#d5fdb1" d="M 151.792969 283.945312 C 148.523438 283.945312 145.875 286.597656 145.875 289.867188 L 145.875 309.109375 C 145.875 312.375 148.523438 315.027344 151.792969 315.027344 C 155.0625 315.027344 157.710938 312.375 157.710938 309.109375 L 157.710938 289.867188 C 157.710938 286.597656 155.0625 283.945312 151.792969 283.945312 Z M 151.792969 283.945312 " fill-opacity="1" fill-rule="nonzero"/><path fill="#d5fdb1" d="M 245.007812 283.945312 C 241.742188 283.945312 239.089844 286.597656 239.089844 289.867188 L 239.089844 309.109375 C 239.089844 312.375 241.742188 315.027344 245.007812 315.027344 C 248.277344 315.027344 250.925781 312.375 250.925781 309.109375 L 250.925781 289.867188 C 250.925781 286.597656 248.277344 283.945312 245.007812 283.945312 Z M 245.007812 283.945312 " fill-opacity="1" fill-rule="nonzero"/></svg>