<svg xmlns="http://www.w3.org/2000/svg" xmlns:xlink="http://www.w3.org/1999/xlink" width="500" zoomAndPan="magnify" viewBox="0 0 375 374.999991" height="500" preserveAspectRatio="xMidYMid meet" version="1.0"><defs><clipPath id="2f69c5ea92"><path d="M 3 44.417969 L 142 44.417969 L 142 232 L 3 232 Z M 3 44.417969 " clip-rule="nonzero"/></clipPath><clipPath id="a33249f408"><path d="M 168 44.417969 L 210 44.417969 L 210 90 L 168 90 Z M 168 44.417969 " clip-rule="nonzero"/></clipPath><clipPath id="28526784b3"><path d="M 146 81 L 371.878906 81 L 371.878906 218 L 146 218 Z M 146 81 " clip-rule="nonzero"/></clipPath><clipPath id="518403dfdf"><path d="M 102 44.417969 L 171 44.417969 L 171 115 L 102 115 Z M 102 44.417969 " clip-rule="nonzero"/></clipPath></defs><g clip-path="url(#2f69c5ea92)"><path fill="#204e4d" d="M 21.496094 44.613281 C 11.257812 44.613281 3.007812 52.886719 3.007812 63.128906 L 3.007812 176.179688 C 3.007812 186.449219 11.257812 194.675781 21.496094 194.675781 L 89.238281 194.675781 L 89.238281 204.027344 C 78.949219 204.027344 70.53125 214.457031 70.53125 222.128906 L 70.53125 228.414062 C 70.53125 230.28125 71.5625 231.175781 73.242188 231.175781 L 138.78125 231.175781 C 140.457031 231.175781 141.488281 230.285156 141.488281 228.414062 L 141.488281 222.128906 C 141.488281 214.457031 133.09375 204.027344 122.808594 204.027344 L 122.808594 194.679688 L 137.988281 194.679688 C 137.414062 192.546875 136.933594 190.382812 136.59375 188.101562 C 135.207031 178.976562 135.777344 170.070312 138.054688 162.164062 L 32.023438 162.164062 C 24.640625 162.164062 23.558594 157.605469 23.558594 151.949219 L 23.558594 70.347656 C 23.558594 64.6875 24.039062 60.136719 31.421875 60.136719 L 93.433594 60.136719 C 101.296875 60.136719 105.230469 44.613281 99.238281 44.613281 Z M 21.496094 44.613281 " fill-opacity="1" fill-rule="evenodd"/></g><g clip-path="url(#a33249f408)"><path fill="#204e4d" d="M 171.460938 44.613281 C 165.03125 44.613281 170.570312 60.136719 178.507812 60.136719 L 180.59375 60.136719 C 187.976562 60.136719 188.457031 64.683594 188.457031 70.347656 L 188.457031 81.113281 C 188.457031 95.195312 209.007812 90.296875 209.007812 76.222656 L 209.007812 63.128906 C 209.007812 52.886719 200.78125 44.613281 190.519531 44.613281 C 181.171875 44.613281 171.460938 44.613281 171.460938 44.613281 Z M 171.460938 44.613281 " fill-opacity="1" fill-rule="evenodd"/></g><path fill="#204e4d" d="M 259.003906 107.992188 C 226.101562 107.992188 199.585938 133.621094 199.585938 167.410156 C 199.585938 201.199219 226.101562 226.808594 259.003906 226.808594 C 291.902344 226.808594 318.402344 201.199219 318.402344 167.410156 C 318.402344 133.648438 291.90625 107.992188 259.003906 107.992188 Z M 259.003906 107.992188 " fill-opacity="1" fill-rule="nonzero"/><path fill="#204e4d" d="M 222.460938 235.710938 C 179.425781 245.519531 158.65625 259.878906 150.238281 300.238281 C 147.9375 311.117188 151.507812 314.3125 155.941406 315.824219 C 186.519531 326.164062 236.796875 329.851562 259.003906 329.851562 C 281.183594 329.851562 331.496094 326.164062 362.042969 315.824219 C 366.5 314.3125 370.074219 311.121094 367.742188 300.238281 C 359.332031 259.878906 338.585938 245.519531 295.527344 235.710938 L 262.910156 243.191406 C 259.839844 243.910156 258.136719 243.910156 255.09375 243.191406 Z M 222.460938 235.710938 " fill-opacity="1" fill-rule="nonzero"/><g clip-path="url(#28526784b3)"><path fill="#204e4d" d="M 259.003906 81.210938 C 241.402344 81.210938 223.664062 85.433594 208.316406 95.671875 C 191.070312 107.183594 179.039062 124.207031 173.5 143.199219 C 171.964844 143.011719 170.121094 143.101562 167.957031 143.699219 C 159.828125 146.027344 153.691406 152.664062 150.957031 158.542969 C 147.386719 166.191406 145.898438 176.289062 147.480469 186.742188 C 149.035156 197.152344 153.449219 205.757812 158.945312 211.066406 C 164.457031 216.378906 170.667969 218.132812 176.882812 216.8125 C 186.089844 214.847656 190.644531 213.386719 189.351562 204.820312 L 183.117188 163.195312 C 184.386719 140.679688 196.042969 119.484375 215.53125 106.453125 C 228.699219 97.660156 243.925781 94.179688 259.007812 94.179688 C 274.070312 94.179688 289.296875 97.660156 302.464844 106.453125 C 321.953125 119.484375 333.609375 140.679688 334.878906 163.195312 L 328.644531 204.820312 C 327.347656 213.382812 331.929688 214.847656 341.136719 216.8125 C 347.328125 218.132812 353.535156 216.378906 359.050781 211.066406 C 364.570312 205.761719 368.957031 197.15625 370.519531 186.742188 C 372.121094 176.289062 370.609375 166.1875 367.039062 158.542969 C 364.304688 152.667969 358.195312 146.027344 350.0625 143.699219 C 347.875 143.097656 346.035156 143.011719 344.519531 143.199219 C 338.960938 124.207031 326.941406 107.183594 309.679688 95.671875 C 294.324219 85.433594 276.585938 81.210938 259.003906 81.210938 Z M 259.003906 81.210938 " fill-opacity="1" fill-rule="evenodd"/></g><path fill="#204e4d" d="M 85.472656 115.859375 C 100.507812 119.746094 107.746094 125.398438 110.695312 141.324219 C 111.488281 145.640625 110.246094 146.882812 108.707031 147.484375 C 98.035156 151.5625 80.480469 153.023438 72.742188 153.023438 C 64.992188 153.023438 47.445312 151.5625 36.765625 147.484375 C 35.210938 146.882812 33.964844 145.640625 34.777344 141.324219 C 37.707031 125.398438 44.945312 119.742188 59.984375 115.859375 L 71.375 123.773438 C 72.308594 124.417969 73.175781 124.417969 74.105469 123.773438 Z M 85.472656 115.859375 " fill-opacity="1" fill-rule="nonzero"/><path fill="#204e4d" d="M 72.742188 69.40625 C 60.777344 69.40625 51.109375 78.738281 51.109375 91.011719 C 51.109375 103.316406 60.78125 112.613281 72.742188 112.613281 C 84.703125 112.613281 94.34375 103.308594 94.34375 91.011719 C 94.34375 78.742188 84.703125 69.40625 72.742188 69.40625 Z M 72.742188 69.40625 " fill-opacity="1" fill-rule="evenodd"/><g clip-path="url(#518403dfdf)"><path fill="#204e4d" d="M 153.523438 72.003906 C 157.050781 72.003906 159.902344 74.882812 159.902344 78.378906 C 159.902344 81.90625 157.050781 84.761719 153.523438 84.761719 C 150.023438 84.761719 147.144531 81.90625 147.144531 78.378906 C 147.144531 74.882812 150.023438 72.003906 153.523438 72.003906 Z M 136.378906 72.003906 C 139.882812 72.003906 142.730469 74.882812 142.757812 78.378906 C 142.734375 81.90625 139.882812 84.761719 136.378906 84.761719 C 132.855469 84.761719 130 81.90625 130 78.378906 C 130 74.882812 132.855469 72.003906 136.378906 72.003906 Z M 119.210938 72.003906 C 122.734375 72.003906 125.585938 74.882812 125.585938 78.378906 C 125.585938 81.90625 122.730469 84.761719 119.210938 84.761719 C 115.6875 84.761719 112.832031 81.90625 112.832031 78.378906 C 112.832031 74.882812 115.683594 72.003906 119.210938 72.003906 Z M 136.378906 44.613281 C 117.671875 44.613281 102.617188 59.191406 102.617188 78.402344 C 102.617188 87.609375 106.089844 95.738281 111.75 101.730469 L 109.734375 110.777344 C 109.089844 113.746094 111.152344 115.738281 113.808594 114.25 L 122.632812 109.332031 C 126.828125 111.136719 131.457031 112.136719 136.367188 112.136719 C 155.074219 112.136719 170.128906 97.585938 170.128906 78.402344 C 170.140625 59.191406 155.082031 44.613281 136.378906 44.613281 Z M 136.378906 44.613281 " fill-opacity="1" fill-rule="evenodd"/></g></svg>