<svg xmlns="http://www.w3.org/2000/svg" xmlns:xlink="http://www.w3.org/1999/xlink" width="500" zoomAndPan="magnify" viewBox="0 0 375 374.999991" height="500" preserveAspectRatio="xMidYMid meet" version="1.0"><defs><clipPath id="1255d3da36"><path d="M 7.324219 7.324219 L 367.324219 7.324219 L 367.324219 367.324219 L 7.324219 367.324219 Z M 7.324219 7.324219 " clip-rule="nonzero"/></clipPath></defs><g clip-path="url(#1255d3da36)"><path fill="#204e4d" d="M 362.972656 46.144531 L 336.761719 46.144531 C 336.753906 44.023438 335.941406 41.90625 334.324219 40.289062 C 332.757812 38.722656 330.722656 37.929688 328.671875 37.871094 L 328.671875 11.851562 C 328.671875 10.167969 327.664062 8.648438 326.105469 8.003906 C 324.570312 7.359375 322.765625 7.703125 321.574219 8.886719 L 293.289062 36.875 C 292.496094 37.664062 292.046875 38.734375 292.054688 39.851562 L 292.121094 70.707031 L 279.210938 83.621094 C 250.347656 57.6875 212.222656 41.878906 170.460938 41.878906 C 80.640625 41.878906 7.5625 114.953125 7.5625 204.777344 C 7.5625 294.601562 80.640625 367.675781 170.460938 367.675781 C 260.28125 367.675781 333.359375 294.601562 333.359375 204.777344 C 333.359375 162.703125 317.324219 124.304688 291.042969 95.367188 L 303.949219 82.460938 L 334.777344 82.394531 C 335.875 82.394531 336.925781 81.960938 337.703125 81.191406 L 365.902344 53.277344 C 367.101562 52.089844 367.46875 50.292969 366.824219 48.730469 C 366.183594 47.164062 364.660156 46.144531 362.972656 46.144531 Z M 304.175781 204.777344 C 304.175781 278.507812 244.191406 338.492188 170.460938 338.492188 C 96.726562 338.492188 36.746094 278.507812 36.746094 204.777344 C 36.746094 131.046875 96.730469 71.058594 170.460938 71.058594 C 204.175781 71.058594 234.996094 83.628906 258.539062 104.292969 L 233.441406 129.398438 C 216.371094 115.113281 194.40625 106.496094 170.460938 106.496094 C 116.269531 106.496094 72.179688 150.582031 72.179688 204.777344 C 72.179688 258.964844 116.269531 303.054688 170.460938 303.054688 C 224.652344 303.054688 268.742188 258.964844 268.742188 204.777344 C 268.742188 180.519531 259.890625 158.304688 245.273438 141.144531 L 270.375 116.039062 C 291.382812 139.667969 304.175781 170.75 304.175781 204.777344 Z M 170.460938 242.605469 C 191.320312 242.605469 208.292969 225.636719 208.292969 204.777344 C 208.292969 197.207031 206.035156 190.164062 202.1875 184.242188 L 227.511719 158.914062 C 237.632812 171.480469 243.726562 187.421875 243.726562 204.777344 C 243.726562 245.175781 210.863281 278.042969 170.460938 278.042969 C 130.058594 278.042969 97.191406 245.175781 97.191406 204.777344 C 97.191406 164.378906 130.058594 131.507812 170.460938 131.507812 C 187.507812 131.507812 203.171875 137.410156 215.636719 147.210938 L 190.253906 172.597656 C 184.488281 169.035156 177.722656 166.945312 170.460938 166.945312 C 149.601562 166.945312 132.628906 183.917969 132.628906 204.777344 C 132.628906 225.636719 149.601562 242.605469 170.460938 242.605469 Z M 170.460938 242.605469 " fill-opacity="1" fill-rule="nonzero"/></g></svg>